<svg width="420" height="344" viewBox="0 0 420 344" fill="none" xmlns="http://www.w3.org/2000/svg">
<path d="M173.179 93.1721C174.411 90.833 175.762 86.9356 176.974 84.2929C178.829 80.248 180.544 76.3943 182.491 72.3493C187.255 62.3834 191.524 52.0404 198.554 43.4092C201.088 40.2968 207.4 37.7569 210.851 40.3532C215.705 44.0035 214.274 53.5877 214.116 59.105C213.833 69.0638 212.514 79.5483 211.948 89.5311C211.747 93.3376 211.298 97.7649 211.532 101.516C214.253 102.625 217.315 102.776 220.172 103.407C222.178 103.85 224.134 104.519 226.127 105.022C228.724 105.676 231.359 106.152 233.976 106.718C235.959 107.146 237.876 107.823 239.857 108.255C241.516 108.618 243.21 108.829 244.878 109.16C248.768 109.935 252.628 110.888 256.524 111.633C259.014 112.11 261.538 112.401 264.034 112.837C266.044 113.187 268.031 113.669 270.041 113.998C288.565 117.027 313.14 119.201 331.576 115.349C333.461 114.955 338.168 113.531 339.847 114.626C339.979 114.852 340.165 115.027 340.116 115.302C339.981 116.062 339.154 116.667 338.551 117.071C334.624 119.696 325.869 120.533 321.212 120.966C289.503 123.911 257.966 117.925 227.079 111.333C221.626 110.169 216.224 108.865 210.744 107.781C210.759 112.382 209.809 120.438 209.483 125.444L208 149.053C207.767 153.435 207.752 157.934 207.398 162.287C206.817 169.423 206.202 176.511 205.913 183.667C205.767 187.232 205.365 190.72 205.425 194.303C205.09 194.984 205.109 197.844 205.097 198.74C205.599 196.949 206.112 195.184 206.516 193.367C207.566 191.848 208.072 189.386 208.796 187.626C214.969 172.617 224.142 159.04 237.72 149.84C237.413 150.355 233.922 153.991 233.137 154.831C230.227 157.948 220.272 169.665 219.874 173.326C220.037 173.835 220.053 173.794 220.49 174.12C203.883 193.414 203.814 229.961 201.192 253.967C201.015 255.59 200.826 265.067 197.134 262.098C195.653 260.755 196.581 249.155 196.628 247.128L197.271 219.678C197.306 217.75 197.476 215.208 197.633 213.239C197.547 213.151 197.462 213.063 197.376 212.972L196.621 212.983C195.367 213.434 193.731 214.086 192.459 214.338C191.034 214.779 189.603 215.202 188.167 215.604C186.294 216.603 183.199 218.027 181.581 218.985C175.66 222.492 166.246 228.882 161.951 234.142C159.495 233.594 157.114 232.958 154.676 232.357C152.596 231.774 149.33 231.582 147.055 231.305C145.273 231.005 137.903 230.656 135.914 230.572C132.47 230.562 127.569 230.369 124.397 231.317L122.322 231.688C107.129 234.49 95.8703 236.455 80.3609 233.826C63.2963 230.933 47.6932 223.584 37.3609 209.169C27.9948 196.269 25.724 179.776 28.4648 164.213C32.4099 141.81 46.8128 122.895 65.0321 110.129C96.552 88.0416 136.614 87.0078 173.179 93.1721ZM51.9867 151.853C52.5728 151.726 53.1603 151.605 53.7491 151.49C53.2897 152.319 52.7145 152.641 51.9487 153.209L51.6354 152.562L51.9867 151.853ZM91.3137 133.119C91.7852 134.256 92.6783 134.357 93.4615 135.321C93.1024 136.27 91.5501 136.273 90.657 136.628L90.5898 136.834C90.4113 135.882 90.3629 135.42 89.834 134.601L89.7608 134.368C89.9265 133.755 90.5832 132.826 91.1625 132.601C92.1637 132.218 92.0173 132.093 92.9574 132.321C93.4883 132.861 93.4408 132.65 93.5197 133.269C92.9904 133.825 93.3038 133.656 92.5448 133.79C92.1373 133.56 91.7269 133.337 91.3137 133.119ZM101.267 161.001L100.963 161.279C100.168 161.218 98.9982 160.314 99.0158 159.39C99.7674 158.963 99.6218 159.11 100.628 159.129C100.822 159.504 101.038 159.844 101.28 160.189L101.267 161.001ZM197.591 212.535C198.346 197.915 198.573 183.233 199.315 168.578C200.148 153.504 200.727 138.418 201.05 123.325C201.133 119.328 202.531 109.518 202.024 105.832C200.264 105.405 198.075 104.589 196.367 104.242C190.056 102.963 183.643 101.302 177.345 100.126C175.17 104.879 173.262 109.737 171.063 114.501C163.778 130.281 156.214 146.288 147.015 161.048C145.476 163.518 142.563 168.393 140.818 170.362L130.867 170.728C136.238 162.479 141.705 154.648 146.589 146.051C153.661 133.604 160.284 121.038 166.19 107.994C167.545 105.002 169.237 101.939 170.313 98.8546C169.818 98.4324 155.529 96.2669 153.863 96.0931C144.237 95.0347 134.533 94.8628 124.875 95.5795C87.5938 98.1009 48.9087 117.631 36.3521 155.603C34.9869 159.732 33.9097 164.237 33.6027 168.537C33.4134 171.189 32.8767 181.341 34.2033 182.958L34.1756 183.825C34.014 185.06 34.9377 187.673 35.3403 188.951C36.0433 193.258 40.6629 200.908 43.1572 204.563C49.9365 213.106 57.4241 218.812 67.5414 223.138C69.1337 223.819 71.8569 224.63 73.5767 225.202C78.9223 226.987 85.3195 228.523 90.9134 229.165C96.2579 229.776 101.984 229.971 107.369 230.265C109.8 230.396 115.434 230.784 117.742 230.49L117.848 230.589C119.198 231.075 121.026 231.04 121.619 231.629L122.322 231.688L124.397 231.317C127.569 230.369 132.47 230.562 135.914 230.572C137.903 230.656 145.273 231.005 147.055 231.305C149.33 231.582 152.596 231.774 154.676 232.357C157.114 232.958 159.495 233.594 161.951 234.142C166.246 228.882 175.66 222.492 181.581 218.985C183.199 218.027 186.294 216.603 188.167 215.604C189.603 215.202 191.034 214.779 192.459 214.338C193.731 214.086 195.367 213.434 196.621 212.983C196.1 212.741 194.839 212.322 194.259 212.117L193.348 211.682L193.393 211.177C193.888 211.245 196.925 212.312 197.591 212.535ZM185.428 95.4542C186.301 95.5606 187.068 95.769 187.918 95.9721C192.757 97.1274 197.823 97.9992 202.583 99.4564C202.568 96.0142 202.967 92.6375 203.14 89.2088C203.275 86.5608 203.227 83.9065 203.386 81.2591C203.646 76.9374 205.978 50.1879 204.243 48.3405C204.181 48.2747 204.104 48.225 204.034 48.1674C197.41 53.6133 188.832 73.7811 185.314 82.0408C183.806 85.583 181.179 90.8665 179.852 94.4745C181.396 94.752 183.98 95.298 185.428 95.4542Z" fill="#25381B"/>
<path d="M74.9075 126.368C77.6904 127.791 78.0917 125.289 82.4133 126.729C83.8093 128.239 84.4301 129.116 84.8722 131.21C86.7435 131.06 85.8391 129.545 88.1912 130.317C89.2957 130.679 90.6437 129.287 91.511 130.545C91.6248 131.465 91.4599 131.736 91.1626 132.601C90.5832 132.826 89.9266 133.755 89.7609 134.368L89.8341 134.601C90.363 135.42 90.4114 135.882 90.5898 136.834L90.657 136.628C91.4718 137.204 91.7015 137.124 92.6088 136.752C93.2917 136.344 93.5915 136.439 94.4307 136.466C95.0625 136.726 95.3763 136.887 95.9694 137.227C96.1841 136.184 95.8681 136.346 96.4792 135.712C97.3697 135.634 100.517 135.344 101.134 135.825C101.191 136.282 101.192 136.602 101.414 137.007C102.215 137.141 102.44 137.048 103.01 137.518C103.26 139.368 101.275 138.918 103.375 140.275L103.547 140.72L103.262 141.136L102.214 141.316L102.039 141.57L102.119 141.949C102.299 142.486 102.47 142.988 102.672 143.517C103.992 143.92 104.775 142.833 106.158 143.295C106.969 144.075 106.302 143.955 106.772 144.752C107.445 144.914 108.946 145.178 109.152 145.824C109.778 147.78 108.848 147.856 107.471 147.789L107.305 148.007C107.75 148.902 108.099 148.16 108.188 149.062C107.632 149.634 107.876 149.453 107.073 149.694C105.841 149.313 106.164 148.528 105.551 148.653C105.534 150.021 105.82 150.859 104.715 151.741L104.612 152.106C105.331 153.235 107.518 152.837 106.144 154.774C107.091 154.73 106.881 154.592 107.481 155.042C107.993 156.379 108.177 157.243 106.976 158.232C106.386 158.369 106.454 158.386 105.791 157.975C105.659 157.892 105.528 157.808 105.399 157.721C104.845 158.352 105.496 158.467 104.672 159.428C103.957 159.462 104.259 159.557 103.708 159.257C103.624 158.383 103.796 158.024 102.944 157.573C102.37 157.623 102.508 157.586 101.999 157.728C101.249 157.936 100.161 157.263 99.3579 157.537L99.402 157.806C100.199 158.284 100.38 158.208 100.628 159.129C99.6218 159.11 99.7674 158.963 99.0158 159.39C98.9982 160.314 100.168 161.218 100.963 161.279L101.267 161.001L101.323 161.224C101.6 162.289 101.736 161.911 101.442 162.817C100.253 163.466 96.9292 163.471 96.0403 162.253C95.2165 161.682 93.8917 161.348 93.7023 160.336L94.0497 159.959C93.1006 159.919 91.5151 160.213 90.6952 160.731L90.5053 161.055C91.2715 161.325 92.2425 161.343 92.6715 161.656L92.7706 161.985C92.0247 163.137 91.7054 162.725 90.4493 163.148C89.6499 162.936 89.2285 162.438 88.597 161.877C87.7285 162.313 86.2801 162.915 85.5652 163.408C82.3871 165.599 79.293 171.694 79.0273 175.421L79.0053 175.789C78.9912 177.658 79.4838 183.624 79.3008 184.793C80.0211 184.384 80.1529 184.237 80.9439 184.235C82.1346 184.791 82.093 185.701 82.254 186.919C85.9868 187.295 90.0527 189.093 93.5677 189.098C93.8577 188.267 93.9561 187.723 94.5902 187.123C95.3472 186.869 95.0404 186.911 95.8666 187.097C96.5608 187.758 96.4919 188.703 96.5668 189.697C98.2751 189.983 102.624 191.312 103.957 192.344L103.991 192.64C102.813 193.049 98.1629 192.194 96.5085 192.058L96.7954 194.285C98.5714 195.392 102.793 195.124 104.014 196.462C104.073 197.052 104.14 196.79 103.809 197.278C101.595 197.508 98.8684 196.008 96.3886 196.697L96.267 196.967C96.721 197.384 96.8892 197.361 97.4933 197.459C99.3115 197.926 101.027 198.271 102.864 198.64C105.034 199.219 106.749 200.058 108.97 200.48L108.918 204.391L105.045 204.918C101.854 205.657 98.4769 206.357 95.2194 206.714C93.6081 207.132 91.9942 207.543 90.3777 207.943C87.6803 208.665 84.969 209.335 82.2452 209.951C81.6804 210.181 81.0426 210.421 80.4928 210.667C77.4625 211.452 75.0974 212.568 72.2306 213.651L67.4892 215.565C65.3239 216.976 63.2539 217.897 61.224 219.153C54.089 215.112 49.3391 211.707 44.2591 205.075L43.1445 203.485L42.6964 202.884C40.0438 199 37.9044 194.789 36.3314 190.356L35.6592 188.923L45.1939 188.756C45.1986 188.083 45.2907 186.03 45.0536 185.55C43.3687 184.524 37.268 185.274 35.0489 184.737C34.4529 184.593 34.4283 184.322 34.1757 183.825L34.2033 182.958C36.4274 182.057 43.6615 183.678 44.9066 182.541C45.0587 181.326 45.4353 179.255 47.5531 180.29C48.2102 180.611 48.2883 182.057 48.3765 182.802C48.5662 182.848 48.7561 182.893 48.9466 182.937C52.4662 183.739 58.7867 183.62 62.6561 184.225C63.3062 184.326 62.7465 182.477 64.1991 181.558C65.8976 181.679 65.7234 183.061 65.851 184.498C68.1895 184.961 72.1606 184.974 73.968 185.763C75.0715 176.86 76.1018 168.424 67.0542 163.349C66.6016 163.748 66.1508 164.236 65.5877 164.383C65.5413 163.941 65.4931 163.733 65.3974 163.307L65.0473 163.208C64.5209 163.584 64.5555 163.616 64.3242 164.2C64.5578 164.545 64.7309 164.822 64.9415 165.182C64.8584 165.944 64.2887 166.434 63.6097 166.693C63.0283 166.692 62.8446 166.449 62.3747 166.077L62.1914 165.929C61.2306 165.829 62.3819 166.329 61.2091 167.096C60.1365 167.223 58.7699 167.006 57.8755 166.417C56.1797 165.299 58.9036 162.035 59.5779 161.12C58.7188 161.535 58.1023 161.996 57.2287 161.848C56.6742 161.26 56.6491 161.175 55.8971 161.014L55.7041 161.241L56.1217 162.378C54.5932 163.351 52.1581 163.243 50.5005 162.744C49.2844 162.378 50.1053 160.872 49.4244 159.616C48.7758 159.344 48.6509 159.309 48.1011 158.889C48.1895 157.961 48.866 155.804 49.2585 154.974C49.2464 155 51.7545 153.338 51.9488 153.209C52.7145 152.641 53.2898 152.319 53.7491 151.49C53.1604 151.605 52.5728 151.726 51.9867 151.853C50.8141 151.084 50.0573 150.818 49.7704 149.52C49.9862 148.935 50.0727 148.815 50.4835 148.343L50.4371 147.914L49.8311 147.721C49.6137 147.314 49.4975 147.202 49.688 146.69C51.9014 140.737 58.0504 143.256 59.4161 142.599C59.7854 142.049 60.3393 141.408 60.3916 140.822C59.851 140.85 59.9064 141.734 58.968 142.41C57.7334 142.116 59.0147 141.088 58.3388 140.093C57.7445 139.976 57.501 139.98 57.0242 139.599C56.6854 138.675 57.0302 138.446 57.7572 137.85C58.776 137.016 58.3593 136.475 58.5242 135.221C59.2327 134.071 60.2608 133.787 61.5318 133.164C62.8858 133.345 67.8909 133.954 68.782 133.043L68.7094 132.756C68.3011 132.534 67.9436 132.32 67.549 132.08C66.66 130.057 69.7992 127.504 71.3247 126.509C72.8331 125.525 73.3761 126.609 74.9075 126.368ZM53.1423 189.35C54.3209 189.422 55.3373 189.529 56.5103 189.672L61.321 189.714C61.9379 189.756 62.3286 189.855 62.8685 189.57C63.3386 188.861 63.2619 187.449 63.3394 186.531C58.6302 186.017 52.9887 185.75 48.193 185.413L48.3076 188.913C50.076 188.93 51.4024 189.121 53.1423 189.35ZM48.3515 191.827C51.2568 192.531 55.4656 193.78 58.3769 193.348C59.3988 192.9 62.4545 192.824 64.3197 192.289C63.0763 191.894 62.0712 191.775 60.7794 191.581C58.8193 191.671 57.0197 191.531 55.0815 191.265L51.7775 190.963C50.998 191.084 48.7301 191.274 48.3076 191.576L48.3515 191.827ZM91.7657 195.272C89.1007 194.871 84.3815 194.029 81.8414 194.128C83.9463 195.125 85.2294 195.78 87.6272 195.734C88.4551 195.718 89.8406 195.647 90.6343 195.762C91.3531 195.955 93.0675 196.324 93.6762 195.903C93.1606 195.45 92.4587 195.406 91.7657 195.272ZM82.1272 191.819C83.4289 192.098 93.2314 194.01 93.8803 193.802L93.8249 191.131C89.72 190.229 86.1539 189.424 81.9617 189.143L82.1272 191.819ZM89.7697 153.768C89.0447 154.068 88.6483 154.233 87.9709 154.618C87.2917 155.128 86.5785 155.949 86.545 156.795L86.8684 156.796L86.4103 156.686L86.4977 156.799C87.7263 156.645 89.3728 154.855 89.7697 153.768ZM89.3788 152.598L89.8302 152.006C89.9181 151.301 89.986 151.621 89.6208 151.012C88.5817 150.689 87.7289 151.205 87.3053 152.163C87.8922 152.39 88.7908 152.871 89.3788 152.598ZM79.5455 156.352C79.2693 155.638 79.2116 155.61 78.6688 155.043C78.151 156.277 78.208 157.103 78.3585 158.385L78.5564 158.658C79.2592 157.678 79.0314 157.114 79.5455 156.352ZM74.8367 152.557C74.7984 153.602 75.2823 156.311 75.9999 157.074C75.9876 156.015 75.671 153.228 74.8367 152.557ZM75.3779 169.572C75.4893 166.217 76.0514 162.415 74.4196 159.594C73.4362 162.289 72.6731 162.462 70.7946 160.252C70.4366 162.934 73.8177 166.536 75.3779 169.572ZM78.6643 168.953C79.7973 166.81 84.6751 160.405 84.9407 158.747L84.6048 158.623C83.5901 159.904 82.596 159.547 82.2232 160.929C81.6482 161.43 81.9691 161.283 81.2362 161.408C80.2731 160.608 80.8451 159.705 80.4286 158.476C78.4127 161.226 78.4356 165.622 78.6643 168.953ZM65.6201 186.736C65.7138 187.356 65.8824 189.588 66.0665 189.842C67.1165 190.049 72.2445 190.859 72.9855 190.411L73.0382 190.279L73.79 187.589C71.277 187.43 68.1243 187.091 65.6201 186.736ZM53.729 161.871C53.0673 161.03 52.8958 160.883 52.0769 160.209C52.3396 161.174 52.5402 162.19 53.729 161.871ZM91.8701 154.558C90.8197 154.944 91.0459 154.692 90.4809 155.475C91.9066 155.22 92.3537 155.503 93.6327 156.235C94.048 156.122 93.8989 156.243 94.103 155.902C94.0164 155.283 94.0369 154.873 93.626 154.416C93.0669 154.179 92.4853 154.41 91.8701 154.558Z" fill="#3A4820"/>
<path d="M56.5103 189.672L61.321 189.714C62.0017 190.074 61.9861 189.917 62.1623 190.45C61.8239 191.03 61.3709 191.219 60.7794 191.581C58.8193 191.671 57.0197 191.531 55.0815 191.265C55.4041 191.235 55.746 191.182 56.0692 191.139C56.5345 190.599 56.3959 190.532 56.5103 189.672Z" fill="#63692F"/>
<path d="M53.1423 189.35C54.3209 189.422 55.3373 189.529 56.5103 189.672C56.3959 190.532 56.5345 190.599 56.0692 191.139C55.746 191.182 55.4041 191.235 55.0815 191.265L51.7775 190.963C52.2213 190.416 52.6764 189.878 53.1423 189.35Z" fill="#8E9047"/>
<path d="M36.3314 190.356C37.5994 189.863 42.5683 190.457 44.0545 190.847C45.0651 191.111 44.8801 193.066 45.8044 193.888C47.1844 194.112 48.0319 193.063 48.3515 191.827C51.2568 192.532 55.4656 193.78 58.3769 193.348C60.5509 195.114 66.5187 195.052 69.3228 195.171C70.9174 195.238 73.3925 195.651 74.9156 195.566L74.9698 195.758C75.8744 195.906 77.3169 196.197 78.1823 196.143C79.7768 196.308 81.3682 196.769 82.7183 196.912C84.8857 197.534 84.8051 197.934 86.5366 198.636C87.6059 199.069 89.6277 199.053 91.0723 199.672C90.7058 198.326 92.1607 199.068 92.6606 198.009C94.2475 198.346 96.5118 198.981 97.4933 197.459C99.3115 197.926 101.027 198.271 102.864 198.64C105.034 199.219 106.749 200.058 108.97 200.48L108.918 204.391L105.044 204.918C101.854 205.657 98.4769 206.357 95.2194 206.714C93.6081 207.132 91.9941 207.543 90.3777 207.943C87.6803 208.665 84.969 209.335 82.2451 209.951C81.6803 210.181 81.0426 210.421 80.4927 210.667C77.4625 211.452 75.0973 212.568 72.2305 213.651L67.4891 215.565C65.3239 216.976 63.2539 217.897 61.224 219.153C54.0889 215.112 49.3391 211.707 44.2591 205.075L43.1445 203.485L42.6964 202.884C40.0437 199 37.9044 194.789 36.3314 190.356Z" fill="#58602A"/>
<path d="M43.1445 203.485C48.7975 204.679 59.8084 210.156 64.8207 213.733C65.8143 214.441 65.9398 214.946 67.4891 215.565C65.3239 216.976 63.2539 217.897 61.224 219.153C54.0889 215.112 49.3391 211.707 44.2591 205.075L43.1445 203.485Z" fill="#58602A"/>
<path d="M74.9698 195.758C75.8744 195.906 77.3169 196.197 78.1824 196.143C79.7768 196.308 81.3682 196.769 82.7183 196.912C84.8857 197.534 84.8051 197.934 86.5366 198.636C87.6059 199.069 89.6278 199.053 91.0723 199.672C90.7059 198.326 92.1607 199.068 92.6607 198.009C94.2476 198.346 96.5118 198.981 97.4933 197.459C99.3116 197.926 101.027 198.271 102.864 198.64C105.034 199.219 106.749 200.058 108.97 200.48L108.918 204.391L105.045 204.918C104.587 204.95 103.613 205.023 103.193 204.862C95.3864 201.879 87.3219 200.05 79.3669 197.551C78.1516 197.169 74.882 197.024 73.3969 196.777L73.1571 196.283C73.0369 196.339 72.9168 196.394 72.7964 196.45C73.743 195.947 74.0777 196.182 74.9698 195.758Z" fill="#787B39"/>
<path d="M97.4933 197.459C99.3115 197.926 101.027 198.271 102.864 198.64C101.813 198.947 101.89 199.031 101.58 200.142C100.395 200.847 98.6614 199.574 97.3001 199.762C94.905 200.092 93.4317 200.146 91.0723 199.672C90.7058 198.326 92.1607 199.068 92.6606 198.009C94.2475 198.346 96.5118 198.981 97.4933 197.459Z" fill="#63692F"/>
<path d="M42.6965 202.884C45.2394 200.994 69.589 210.402 72.1771 213.352L72.2306 213.651L67.4892 215.565C65.9398 214.946 65.8143 214.441 64.8207 213.733C59.8084 210.156 48.7975 204.679 43.1446 203.485L42.6965 202.884Z" fill="#8E9047"/>
<path d="M63.5687 197.749C70.31 196.868 84.5281 202.39 91.3463 204.862C92.2113 205.175 94.6841 206.074 95.2194 206.714C93.6081 207.132 91.9941 207.543 90.3777 207.943C88.8343 207.534 85.4382 205.514 83.7978 204.798C77.1092 201.877 70.7405 199.266 63.5687 197.749Z" fill="#8E9047"/>
<path d="M66.3212 203.287C68.8687 203.781 80.819 207.957 82.2946 209.52L82.2451 209.951C81.6804 210.181 81.0426 210.421 80.4927 210.667C80.2013 210.603 77.2045 208.777 76.6516 208.433C73.4454 206.433 69.3722 205.391 66.3212 203.287Z" fill="#8E9047"/>
<path d="M94.4307 136.466C95.0625 136.726 95.3763 136.887 95.9694 137.227C96.1841 136.184 95.8681 136.346 96.4792 135.712C97.3696 135.634 100.517 135.344 101.134 135.825C101.191 136.282 101.192 136.602 101.414 137.007C102.215 137.141 102.44 137.048 103.01 137.518C103.259 139.368 101.275 138.918 103.375 140.275L103.547 140.72L103.262 141.136L102.214 141.316L102.039 141.57L102.119 141.949C102.299 142.486 102.47 142.988 102.672 143.517C103.992 143.92 104.775 142.833 106.158 143.295C106.969 144.075 106.302 143.956 106.772 144.752C107.445 144.914 108.946 145.178 109.152 145.824C109.777 147.78 108.848 147.856 107.471 147.789L107.305 148.007C107.75 148.902 108.099 148.16 108.188 149.062C107.632 149.634 107.876 149.453 107.073 149.694C105.841 149.313 106.164 148.528 105.551 148.653C105.534 150.021 105.82 150.859 104.715 151.741C104.373 151.304 104.219 151.225 103.792 150.875L103.271 151.96L103.169 151.687C102.314 151.087 101.856 151.458 101.468 150.893L101.786 150.536C98.3784 149.992 99.2931 147.342 96.0155 147.516C97.1994 145.696 96.5992 145.764 97.2946 144.08L97.682 142.787C98.2816 142.43 97.7548 141.897 98.521 141.487L99.0804 141.797C99.6089 142.072 100.039 142.381 100.616 142.366C100.582 140.616 99.8386 139.406 98.8573 138.087C97.3787 139.347 96.7513 139.709 94.7598 139.945C93.7484 140.065 93.7843 139.877 92.941 139.197C93.1124 138.775 93.3807 138.697 93.7933 138.46L93.9682 138.361C94.5189 137.59 94.2319 137.342 94.4307 136.466Z" fill="#6E7034"/>
<path d="M97.2946 144.08C98.2402 144.361 98.0886 144.167 98.6557 144.8L98.84 145.805C99.7301 146.574 99.9165 145.832 100.89 146.628C101.641 146.277 103.091 146.009 103.724 146.68C103.087 147.769 102.899 148.015 102.594 149.242L102.559 149.381C102.316 149.793 102.116 150.19 101.786 150.536C98.3784 149.992 99.2931 147.342 96.0155 147.515C97.1994 145.696 96.5992 145.764 97.2946 144.08Z" fill="#25381B"/>
<path d="M98.8401 145.805C99.7301 146.574 99.9165 145.832 100.89 146.628C100.671 147.101 100.618 147.108 100.289 147.508C99.5316 147.609 99.8853 147.678 99.2051 147.231C98.7556 146.366 98.7863 146.7 98.8401 145.805Z" fill="#63692F"/>
<path d="M97.682 142.787C98.2817 142.43 97.7548 141.897 98.521 141.487L99.0804 141.797C98.4059 142.229 98.6389 141.94 98.3602 142.695C98.4757 143.143 98.5454 143.582 99.0269 143.754C100.466 144.27 102.213 145.98 103.613 146.122C103.816 146.512 103.818 146.328 103.724 146.68C103.091 146.009 101.641 146.277 100.89 146.628C99.9165 145.832 99.7301 146.574 98.8401 145.805L98.6557 144.8C98.0887 144.167 98.2402 144.361 97.2946 144.08L97.682 142.787Z" fill="#58602A"/>
<path d="M102.559 149.381C103.218 150.037 103.372 149.549 104.217 150.102L104.305 150.487C104.154 150.612 103.955 150.808 103.793 150.875L103.271 151.96L103.169 151.687C102.314 151.087 101.856 151.458 101.468 150.893L101.786 150.536C102.116 150.19 102.316 149.793 102.559 149.381Z" fill="#63692F"/>
<path d="M103.792 150.875C104.219 151.225 104.373 151.304 104.715 151.741L104.612 152.106C105.331 153.235 107.518 152.837 106.144 154.774C107.091 154.73 106.881 154.592 107.481 155.042C107.992 156.38 108.177 157.243 106.976 158.232C106.385 158.369 106.454 158.386 105.791 157.975C105.659 157.892 105.528 157.808 105.399 157.721C104.845 158.352 105.496 158.468 104.672 159.428C103.957 159.462 104.259 159.557 103.708 159.257C103.624 158.383 103.796 158.024 102.944 157.573C102.37 157.623 102.508 157.586 101.999 157.728C101.249 157.936 100.161 157.263 99.3579 157.537L99.402 157.806C98.9124 158.332 98.4834 158.489 97.8067 158.527L97.537 158.268L97.61 157.732C98.1834 157.599 98.2205 157.636 98.6417 157.203C98.9873 155.894 99.0226 155.613 99.8554 154.556L99.9469 154.371L100.305 154.484C100.903 154.788 101.088 154.858 101.666 154.724L101.829 154.278C101.693 153.457 101.599 153.384 101.133 152.663C101.692 152.287 101.818 152.416 102.595 152.368L103.169 151.687L103.271 151.96L103.792 150.875Z" fill="#8E9047"/>
<path d="M102.944 157.573L103.46 157.6C104.869 156.718 105.62 155.106 106.144 154.774C107.091 154.73 106.881 154.592 107.481 155.042C107.993 156.379 108.177 157.243 106.976 158.232C106.386 158.369 106.454 158.386 105.791 157.975C105.659 157.892 105.528 157.808 105.399 157.721C104.845 158.352 105.496 158.467 104.672 159.428C103.957 159.462 104.259 159.557 103.708 159.257C103.624 158.383 103.796 158.024 102.944 157.573Z" fill="#787B39"/>
<path d="M103.169 151.687L103.271 151.96C103.802 152.62 103.86 152.647 103.953 153.456C103.614 154.66 102.104 155.206 101.035 155.642C100.607 155.366 100.513 154.967 100.305 154.484C100.903 154.788 101.088 154.858 101.666 154.724L101.829 154.278C101.693 153.457 101.599 153.384 101.133 152.663C101.692 152.287 101.818 152.416 102.595 152.368L103.169 151.687Z" fill="#58602A"/>
<path d="M74.9075 126.368C77.6904 127.791 78.0917 125.289 82.4133 126.729C83.8093 128.239 84.4301 129.116 84.8722 131.21C84.3271 131.488 83.7777 131.756 83.224 132.016C82.2466 131.202 82.3582 131.214 81.9505 129.929C80.7707 129.747 79.2623 130.337 77.7503 130.206L77.45 130.179C76.4806 130.014 76.4298 130.035 75.6716 129.372L75.0488 129.243C74.4319 129.679 74.6805 129.401 74.364 130.175L73.9674 129.808C74.5847 128.09 73.4996 128.034 74.0732 126.697L74.9075 126.368Z" fill="#58602A"/>
<path d="M75.6716 129.372C76.3861 128.714 77.0405 128.175 77.813 129.19C77.7634 129.756 77.8163 129.765 77.45 130.179C76.4806 130.014 76.4297 130.035 75.6716 129.372Z" fill="#63692F"/>
<path d="M78.9883 127.873C80.445 128.092 80.4997 128.592 81.1426 129.824C80.2944 129.683 79.9856 129.684 79.2366 129.263C78.8043 128.527 78.9147 128.834 78.9883 127.873Z" fill="#25381B"/>
<path d="M95.3156 157.172C95.9795 156.802 96.7743 156.592 97.4874 156.926C97.7392 157.438 97.7033 157.178 97.61 157.732L97.537 158.267L97.8067 158.527C98.4835 158.489 98.9125 158.332 99.402 157.806C100.199 158.284 100.38 158.208 100.628 159.129C99.6218 159.11 99.7675 158.963 99.0158 159.39C98.9982 160.314 100.168 161.218 100.963 161.279L101.267 161.001L101.323 161.224C101.6 162.289 101.736 161.911 101.442 162.817C100.253 163.466 96.9292 163.471 96.0404 162.252C95.2166 161.682 93.8918 161.348 93.7023 160.336L94.0497 159.959L94.2096 159.79L95.6708 158.119C95.7299 157.459 95.801 157.777 95.3156 157.172Z" fill="#63692F"/>
<path d="M94.2096 159.79C95.4294 159.501 96.3125 159.426 96.7618 160.694C96.662 161.447 96.4842 161.599 96.0404 162.253C95.2166 161.682 93.8918 161.348 93.7023 160.336L94.0497 159.959L94.2096 159.79Z" fill="#787B39"/>
<path d="M95.4723 153.655L96.3215 154.081L96.6269 155.003C97.8565 154.641 98.5985 154.319 99.8554 154.555C99.0226 155.613 98.9873 155.894 98.6417 157.203C98.2205 157.635 98.1834 157.599 97.61 157.732C97.7033 157.178 97.7392 157.438 97.4874 156.926C96.7743 156.592 95.9794 156.802 95.3156 157.172C94.2338 157.615 93.5736 158.177 92.6254 158.858L91.915 158.418C90.4924 158.345 90.6433 159.704 88.4885 159.024C87.4387 157.731 89.5307 156.227 90.4809 155.475C91.9066 155.22 92.3536 155.503 93.6327 156.235C94.048 156.122 93.8989 156.243 94.103 155.902C94.3222 155.195 95.0311 154.309 95.4723 153.655Z" fill="#6E7034"/>
<path d="M92.6087 136.752C93.2917 136.344 93.5915 136.439 94.4307 136.466C94.2319 137.342 94.5188 137.59 93.9682 138.361L93.7933 138.46C93.3807 138.697 93.1124 138.775 92.941 139.197C93.7842 139.877 93.7484 140.065 94.7598 139.945C96.7513 139.709 97.3787 139.347 98.8573 138.087C99.8386 139.406 100.582 140.616 100.616 142.366C100.039 142.381 99.6089 142.072 99.0804 141.797L98.5209 141.487C97.7548 141.897 98.2816 142.43 97.682 142.788C97.7014 142.227 97.7466 142.072 97.86 141.534C98.7822 140.488 99.1052 141.966 100.173 141.816C99.717 139.886 99.5156 141.01 98.1409 139.782L98.2074 139.63C98.7359 139.734 99.2102 139.873 99.7395 139.808C99.1448 139.16 99.1807 138.961 98.5064 138.843C96.7704 140.141 96.6742 139.731 94.8556 140.429C94.2961 140.644 94.0658 142.776 93.2018 143.266C91.737 142.791 93.0833 142.039 92.3046 140.848C90.843 140.301 90.6738 140.176 89.4998 139.14L89.9476 139.012C89.8974 138.59 89.9768 138.296 90.0488 137.88C90.4005 137.597 90.4458 137.272 90.5897 136.834L90.657 136.628C91.4718 137.204 91.7015 137.124 92.6087 136.752Z" fill="#63692F"/>
<path d="M92.6088 136.752C93.2917 136.344 93.5915 136.439 94.4307 136.466C94.232 137.342 94.5189 137.59 93.9682 138.361L93.7933 138.46C93.3807 138.697 93.1125 138.775 92.941 139.197L92.5514 138.83L92.1623 138.932C92.0571 139.429 92.0216 139.777 91.76 140.217C91.3231 140.121 91.4649 140.193 91.1166 139.893L89.9477 139.012C89.8974 138.59 89.9768 138.296 90.0488 137.88C90.4005 137.597 90.4458 137.272 90.5898 136.834L90.6571 136.628C91.4718 137.204 91.7015 137.124 92.6088 136.752Z" fill="#6E7034"/>
<path d="M92.6088 136.752C93.2917 136.344 93.5915 136.439 94.4307 136.466C94.232 137.342 94.5189 137.59 93.9682 138.361L93.7933 138.46C93.3807 138.697 93.1125 138.775 92.941 139.197L92.5514 138.83L92.1623 138.932C92.0571 139.429 92.0216 139.777 91.76 140.217C91.3232 140.121 91.4649 140.193 91.1166 139.893C91.8906 138.051 92.732 139.051 92.6088 136.752Z" fill="#58602A"/>
<path d="M84.8722 131.21C86.7435 131.06 85.8392 129.545 88.1912 130.317C89.2957 130.679 90.6437 129.287 91.511 130.545C91.6248 131.465 91.4599 131.736 91.1626 132.601C90.5832 132.826 89.9266 133.755 89.7609 134.368C88.6132 133.533 85.1279 133.31 83.6475 132.907C83.3973 132.838 83.3343 132.356 83.224 132.016C83.7777 131.756 84.3271 131.488 84.8722 131.21Z" fill="#6E7034"/>
<path d="M77.352 175.418C78.2408 175.343 78.1132 175.275 79.0053 175.789C78.9911 177.658 79.4837 183.624 79.3008 184.793C79.4089 185.508 79.7231 185.473 79.7825 186.331L79.39 186.589C78.7168 186.591 78.3415 186.71 77.8517 186.39C77.3942 184.959 77.062 176.836 77.352 175.418Z" fill="#58602A"/>
<path d="M89.8341 134.601C90.363 135.42 90.4114 135.882 90.5898 136.834C90.4458 137.272 90.4005 137.597 90.0488 137.88C89.9768 138.296 89.8974 138.59 89.9477 139.012L89.4998 139.14C89.5689 138.358 89.6126 138.095 89.518 137.328C89.2498 137.895 89.2693 138.847 89.2346 139.509C88.8735 139.125 88.4199 138.759 88.015 138.41L87.6135 138.576C86.2967 140.366 87.8934 139.97 87.7314 141.533C87.2534 141.988 87.5239 141.891 86.9193 141.897C86.4212 141.323 86.4045 140.078 86.278 139.187C86.5926 138.586 86.6143 138.551 86.6092 137.835C86.593 135.607 87.2175 137.315 88.0345 135.778C88.3907 135.59 89.1868 135.338 89.6183 135.173L89.8341 134.601Z" fill="#58602A"/>
<path d="M89.834 134.601C90.3629 135.42 90.4113 135.882 90.5898 136.834C90.4458 137.272 90.4005 137.597 90.0488 137.88C90.0287 137.109 90.1806 137.383 89.7828 136.932C88.3985 136.797 88.4334 136.986 88.0345 135.778C88.3907 135.59 89.1868 135.338 89.6183 135.173L89.834 134.601Z" fill="#63692F"/>
<path d="M82.7183 196.912C85.9249 196.857 89.4692 197.464 92.6607 198.009C92.1607 199.068 90.7058 198.326 91.0723 199.672C89.6278 199.053 87.6059 199.069 86.5366 198.636C84.8051 197.934 84.8857 197.534 82.7183 196.912Z" fill="#6E7034"/>
<path d="M96.0155 147.515C99.2931 147.342 98.3784 149.992 101.786 150.536L101.468 150.893C101.856 151.458 102.314 151.087 103.169 151.687L102.595 152.368C101.818 152.416 101.692 152.287 101.133 152.663C100.523 151.809 99.2326 150.631 98.3766 149.561C97.1898 148.855 98.2107 148.279 96.2794 148.039L96.0155 147.515Z" fill="#58602A"/>
<path d="M50.4371 147.914C52.6747 148.72 51.781 150.235 53.7491 151.49C53.1603 151.605 52.5728 151.726 51.9867 151.853C50.814 151.084 50.0573 150.818 49.7704 149.52C49.9861 148.935 50.0727 148.815 50.4834 148.343L50.4371 147.914Z" fill="#25381B"/>
<path d="M96.2794 148.039C98.2107 148.279 97.1898 148.855 98.3766 149.561C97.238 149.849 96.9714 150.943 95.4212 150.388C95.1669 149.647 95.3219 149.632 95.5069 148.726C95.9376 148.497 96.0011 148.44 96.2794 148.039Z" fill="#63692F"/>
<path d="M91.8701 154.558C91.8288 154.459 91.8194 154.214 91.8079 154.091C92.5585 153.222 93.484 152.524 94.661 152.818C94.928 153.293 94.9532 153.41 95.4723 153.655C95.0311 154.309 94.3222 155.195 94.103 155.902C94.0164 155.283 94.0369 154.873 93.6259 154.416C93.0669 154.179 92.4853 154.41 91.8701 154.558Z" fill="#58602A"/>
<path d="M77.352 175.418L77.3883 174.134C77.7697 173.492 77.515 173.714 78.1301 173.394L78.5568 173.577C79.1058 174.395 78.9489 174.375 79.0273 175.421L79.0053 175.789C78.1132 175.275 78.2408 175.343 77.352 175.418Z" fill="#25381B"/>
<path d="M74.9156 195.566C76.7552 194.573 75.7222 193.9 76.723 193.314C77.2166 194.807 76.2884 195.158 77.0858 195.88L78.1823 196.143C77.3169 196.197 75.8744 195.906 74.9698 195.758L74.9156 195.566Z" fill="#58602A"/>
<path d="M74.364 130.175L74.1228 130.553C73.3187 130.938 73.729 130.865 72.846 130.783C72.2531 130.424 72.2022 130.42 71.9457 129.809L72.0966 129.49C72.9391 129.305 73.0656 129.507 73.9673 129.808L74.364 130.175Z" fill="#58602A"/>
<path d="M69.7274 156.564C70.8998 156.972 72.0827 157.349 73.2751 157.694C73.7402 158.326 74.2184 158.85 74.4196 159.594C73.4363 162.289 72.6732 162.462 70.7946 160.252C70.0359 158.971 69.9975 158.005 69.7274 156.564Z" fill="#58602A"/>
<path d="M79.4169 151.69C78.3322 151.385 77.2798 150.749 77.4529 149.407L77.821 148.864L78.1376 148.827C78.5543 149.465 78.6532 149.798 79.3769 150.049L79.7951 149.96C79.8408 149.49 79.841 149.243 79.8383 148.78C80.8129 148.154 81.1201 149.391 82.4112 149.159C83.1323 148.538 82.878 148.199 83.5314 147.703L84.0024 147.928L83.9959 147.788L83.7121 147.614L83.9987 148.023L83.8433 148.233L83.2053 148.259C82.8684 148.858 82.9369 148.996 82.9945 149.721L82.6682 150.258L82.3911 150.315C81.5897 150.484 81.625 150.435 81.2649 150.972C81.3194 151.264 81.3559 151.546 81.4545 151.824C81.205 151.97 80.9468 152.06 80.6765 152.171C80.1135 152.009 79.9563 151.937 79.4169 151.69Z" fill="#63692F"/>
<path d="M79.4169 151.69C79.9563 151.937 80.1136 152.009 80.6765 152.171C80.9468 152.06 81.205 151.97 81.4546 151.824C82.2312 152.464 82.1295 152.683 82.0044 153.665C81.416 154.452 80.3742 156.114 79.5455 156.352C79.2693 155.638 79.2117 155.61 78.6688 155.043C78.2833 154.947 78.4574 154.993 78.1174 154.555C78.0813 153.965 78.3434 153.62 78.6218 153.085C79.2024 152.493 79.2621 152.472 79.4169 151.69Z" fill="#58602A"/>
<path d="M79.4169 151.69C79.9563 151.937 80.1136 152.009 80.6765 152.171C80.9468 152.06 81.205 151.97 81.4546 151.824C82.2312 152.464 82.1295 152.683 82.0044 153.665C81.0499 152.797 80.7559 153.945 78.6218 153.085C79.2024 152.493 79.2621 152.472 79.4169 151.69Z" fill="#25381B"/>
<path d="M80.4286 158.476L80.1351 157.912L80.3049 157.529C81.5092 157.091 83.8651 157.554 84.6048 158.623C83.5901 159.904 82.5961 159.547 82.2232 160.929C81.6482 161.43 81.9691 161.283 81.2362 161.408C80.2731 160.608 80.8451 159.705 80.4286 158.476Z" fill="#58602A"/>
<path d="M86.4874 143.314C86.8137 143.371 86.9082 143.425 87.2206 143.54C87.7587 145.049 85.5367 146.385 84.92 147.8L84.573 147.826C83.6883 146.781 85.7202 144.145 86.4874 143.314Z" fill="#58602A"/>
<path d="M76.068 137.914C76.9702 138.21 78.1209 138.335 78.362 139.273C78.1006 139.614 77.8741 139.944 77.6311 140.297C77.5979 140.362 77.3126 140.639 77.2501 140.702C76.2067 140.577 75.963 138.77 76.068 137.914Z" fill="#25381B"/>
<path d="M59.8026 144.899C60.6961 145.219 61.1799 145.518 61.2554 146.515C60.7609 147.142 61.0628 146.899 60.2739 147.216C59.4273 147.051 59.0625 147.069 58.6577 146.476C58.8656 145.845 59.3531 145.402 59.8026 144.899Z" fill="#63692F"/>
<path d="M87.3052 152.163C87.8922 152.39 88.7908 152.871 89.3788 152.598C89.774 152.829 89.8222 152.802 90.0276 153.196L89.7697 153.768C89.0447 154.068 88.6483 154.233 87.9709 154.618C87.2168 154.323 87.4186 153.03 87.3052 152.163Z" fill="#63692F"/>
<path d="M89.7697 153.768C89.3728 154.855 87.7263 156.645 86.4976 156.799L86.4103 156.686L86.8684 156.796L86.545 156.795C86.5784 155.949 87.2917 155.128 87.9709 154.618C88.6483 154.233 89.0447 154.068 89.7697 153.768Z" fill="#25381B" fill-opacity="0.0196078"/>
<path d="M72.4912 145.096C73.0911 145.363 73.2125 145.371 73.5556 145.942C73.5418 146.653 73.1345 146.986 72.6608 147.563C71.8885 147.513 71.758 147.452 71.5286 146.785C71.6766 146.022 72.0132 145.709 72.4912 145.096Z" fill="#25381B"/>
<path d="M87.3052 152.163C87.7289 151.205 88.5816 150.689 89.6208 151.012C89.986 151.621 89.9181 151.301 89.8302 152.006L89.3788 152.598C88.7908 152.871 87.8922 152.39 87.3052 152.163Z" fill="#6E7034" fill-opacity="0.984314"/>
<path d="M66.2006 135.522C67.0472 135.56 67.2113 135.515 67.9321 135.898C68.4001 136.441 68.3552 136.622 68.4415 137.376C67.6596 137.298 67.2084 137.312 66.4997 136.952C66.0585 136.214 66.1857 136.489 66.2006 135.522Z" fill="#63692F"/>
<path d="M78.6688 155.043C79.2116 155.61 79.2692 155.638 79.5455 156.352C79.0313 157.114 79.2592 157.678 78.5564 158.658L78.3585 158.385C78.208 157.103 78.1509 156.277 78.6688 155.043Z" fill="#25381B" fill-opacity="0.0117647"/>
<path d="M88.877 140.657C89.612 140.784 90.1082 140.793 90.6964 141.243C90.9589 141.909 90.9218 141.629 90.6306 142.448C89.7506 142.488 90.0207 142.59 89.3062 142.219C88.8794 141.605 88.928 141.441 88.877 140.657Z" fill="#58602A"/>
<path d="M81.5333 132.199C82.1734 132.353 82.5967 132.727 82.876 133.311L82.7027 133.601L82.2568 133.683C81.3656 133.797 81.3241 133.963 80.7101 133.615C80.728 133.038 81.1463 132.676 81.5333 132.199Z" fill="#58602A"/>
<path d="M69.6569 191.839C70.5352 191.784 70.5976 191.624 71.1869 191.999C71.0559 192.716 70.9345 192.628 70.3217 193.27C69.7116 192.846 69.3285 192.603 68.6532 192.288L68.5113 192.223C68.7293 191.908 69.1427 191.942 69.6569 191.839Z" fill="#58602A"/>
<path d="M74.8367 152.557C75.671 153.228 75.9876 156.015 75.9999 157.074C75.2824 156.311 74.7984 153.602 74.8367 152.557Z" fill="#63692F" fill-opacity="0.709804"/>
<path d="M83.8727 152.665C84.7773 152.84 85.2696 153.428 85.042 154.346C84.4108 154.391 84.1095 154.48 83.5624 154.171C83.3997 153.414 83.5136 153.541 83.8727 152.665Z" fill="#63692F"/>
<path d="M78.2283 133.597C78.9114 133.74 78.8761 133.758 79.4019 134.249C79.6492 135.1 79.6086 134.772 79.2986 135.729C78.8199 135.734 78.9907 135.764 78.5564 135.571C78.1405 134.933 78.2338 134.383 78.2283 133.597Z" fill="#63692F"/>
<path d="M91.7657 195.272C92.4587 195.406 93.1606 195.45 93.6762 195.903C93.0675 196.324 91.3531 195.955 90.6343 195.762L91.7657 195.272Z" fill="#25381B" fill-opacity="0.0980392"/>
<path d="M52.0769 160.209C52.8958 160.883 53.0672 161.03 53.729 161.871C52.5402 162.19 52.3396 161.174 52.0769 160.209Z" fill="#3A4820" fill-opacity="0.576471"/>
<path d="M43.1572 204.563C43.4554 204.709 43.9644 204.982 44.2591 205.075C49.3391 211.707 54.0889 215.112 61.224 219.153C64.3004 220.929 68.9157 222.548 72.2607 223.982C74.106 224.919 80.9283 226.359 83.2119 226.693C86.8202 227.356 94.5125 228.771 97.9978 228.968C100.965 229.362 104.22 229.504 107.231 229.789C109.212 230.004 116.699 230.014 117.742 230.49C115.434 230.784 109.8 230.396 107.369 230.265C101.984 229.971 96.2579 229.776 90.9134 229.165C85.3194 228.523 78.9222 226.987 73.5767 225.202C71.8569 224.63 69.1337 223.82 67.5414 223.138C57.4241 218.812 49.9365 213.106 43.1572 204.563Z" fill="#212D15" fill-opacity="0.01"/>
<path d="M35.3403 188.951L35.6592 188.923L36.3314 190.356C37.9044 194.789 40.0437 199 42.6964 202.884L43.1445 203.485L44.2591 205.076C43.9644 204.982 43.4554 204.709 43.1572 204.563C40.6629 200.908 36.0433 193.258 35.3403 188.951Z" fill="#25381B" fill-opacity="0.345098"/>
<path d="M107.769 173.751C109.742 171.768 110.024 171.308 112.873 171.311C118.645 171.317 124.57 172.599 130.297 172.836C133.058 172.959 135.823 172.961 138.583 172.843C140.395 172.776 144.431 172.518 146.071 172.803C150.439 173.562 150.349 175.078 155.337 175.424C157.387 173.611 158.344 175.016 161.118 174.517C162.62 175.38 164.292 175.365 164.133 177.176C163.904 180.054 171.314 187.031 165.562 187.824C163.056 188.169 157.197 186.124 155.698 188.58C152.823 193.289 152.879 193.683 148 196.379C147.591 198.978 147.213 200.625 147.907 203.225C159.787 203.63 171.591 205.282 183.126 208.156C186.582 209.007 190.075 209.873 193.393 211.177L193.348 211.682L194.259 212.117C194.839 212.322 196.1 212.74 196.621 212.983C195.367 213.434 193.731 214.086 192.459 214.338C191.034 214.779 189.603 215.202 188.167 215.604C186.294 216.603 183.199 218.027 181.581 218.985C175.66 222.492 166.246 228.882 161.951 234.141C159.495 233.594 157.114 232.958 154.676 232.357C152.596 231.774 149.33 231.582 147.055 231.305C145.273 231.005 137.903 230.656 135.914 230.572C132.47 230.562 127.569 230.369 124.397 231.317L122.322 231.688L121.619 231.629C121.026 231.04 119.198 231.075 117.848 230.589L117.742 230.49C116.699 230.014 109.212 230.004 107.231 229.789C104.22 229.504 100.965 229.362 97.9978 228.968C94.5125 228.771 86.8202 227.356 83.2119 226.693C80.9283 226.359 74.106 224.919 72.2607 223.982C68.9157 222.548 64.3004 220.929 61.224 219.153C63.2539 217.897 65.3239 216.976 67.4891 215.565L72.2305 213.651C75.0973 212.568 77.4625 211.452 80.4927 210.667C81.0425 210.42 81.6803 210.18 82.2451 209.951C84.969 209.335 87.6803 208.665 90.3777 207.943C91.9941 207.543 93.6081 207.132 95.2194 206.714C98.4768 206.357 101.854 205.657 105.044 204.918L108.918 204.391L108.97 200.48C109.33 199.247 108.732 195.462 108.559 194.041C108.032 195.55 107.418 197.538 106.643 198.89C104.528 191.09 105.826 193.691 107.411 186.731C108.156 183.458 106.465 177.905 107.769 173.751ZM122.794 192.508C119.985 197.729 116.857 195.922 121.056 203.188C126.406 202.862 131.765 202.701 137.125 202.705L139.993 202.746C140.945 189.031 137.198 194.781 127.519 194.151C126.237 194.067 124.133 192.776 122.794 192.508ZM111.987 201.211C114.014 201.275 115.584 201.766 117.313 202.854C117.457 201.3 115.197 198.226 114.624 196.685C114.455 196.233 114.329 195.131 114.27 194.618C112.713 197.144 112.28 198.291 111.987 201.211ZM143.315 202.83C144.069 202.915 144.4 203.098 144.927 202.761C145.008 201.743 144.383 198.356 143.796 197.671C143.269 199.065 141.982 201.427 142.337 202.64C142.892 202.983 142.585 202.888 143.315 202.83ZM110.023 185.327L109.518 182.753C109.341 181.443 109.094 180.283 108.823 178.989C108.566 181.616 108.787 184.714 108.692 187.424C108.301 188.619 108.532 191.589 108.907 192.745L109.172 192.862C110.529 190.809 110.4 187.649 110.023 185.327Z" fill="#25381B"/>
<path d="M180.927 209.612C185.56 210.213 190.308 211.647 194.259 212.117C194.839 212.322 196.1 212.74 196.621 212.983C195.367 213.434 193.731 214.086 192.459 214.338C191.034 214.779 189.603 215.202 188.167 215.604C186.294 216.603 183.199 218.027 181.581 218.985C175.66 222.492 166.246 228.882 161.951 234.141C159.495 233.594 157.114 232.958 154.676 232.357C152.596 231.774 149.33 231.582 147.055 231.305C145.273 231.005 137.903 230.656 135.914 230.572C132.47 230.562 127.569 230.369 124.397 231.317C124.272 230.712 124.208 230.611 124.476 230.047C126.35 228.667 127.854 227.122 129.875 225.748C138.826 219.668 148.628 215.499 159.008 212.56C161.57 211.834 165.537 211.458 168.315 210.775L168.517 210.724C171.223 210.382 174.579 209.994 177.267 209.822C178.297 210.119 179.835 209.789 180.927 209.612Z" fill="#C0BB76"/>
<path d="M135.914 230.572C137.375 228.603 142.249 225.393 144.409 224.076C155.71 217.179 168.177 212.886 181.453 212.302C182.43 212.312 183.727 212.193 184.531 212.652C171.778 214.025 156.705 221.662 147.32 230.607C147.183 230.738 147.096 231.126 147.055 231.305C145.273 231.005 137.903 230.656 135.914 230.572Z" fill="#25381B"/>
<path d="M154.676 232.357C155.274 232.158 158.784 228.761 159.736 227.984C165.542 223.231 177.888 216.318 185.288 215.221C186.139 215.356 187.334 215.592 188.167 215.604C186.294 216.603 183.199 218.027 181.581 218.985C175.66 222.492 166.246 228.882 161.951 234.142C159.495 233.594 157.114 232.958 154.676 232.357Z" fill="#25381B"/>
<path d="M185.288 215.22C187.342 214.726 190.396 213.967 192.459 214.338C191.034 214.779 189.603 215.202 188.167 215.604C187.334 215.592 186.139 215.356 185.288 215.22Z" fill="#212D15"/>
<path d="M181.453 212.302C183.108 211.969 186.593 211.994 188.316 212.057C187.296 212.279 185.556 212.697 184.531 212.652C183.727 212.193 182.43 212.312 181.453 212.302Z" fill="#787B39"/>
<path d="M97.9978 228.968C98.4078 227.977 99.2018 227.276 100.082 226.683C122.829 211.331 147.984 205.046 175.039 208.609L174.202 209.259C175.164 209.288 176.484 209.241 177.267 209.822C174.579 209.994 171.223 210.382 168.517 210.724L168.315 210.775C165.537 211.458 161.57 211.834 159.008 212.56C148.628 215.499 138.826 219.668 129.875 225.748C127.854 227.122 126.35 228.667 124.476 230.047C124.208 230.611 124.272 230.712 124.397 231.317L122.322 231.688L121.619 231.629C121.026 231.04 119.198 231.075 117.848 230.589L117.742 230.49C116.699 230.014 109.212 230.004 107.231 229.789C104.22 229.504 100.965 229.362 97.9978 228.968Z" fill="#AEAD63"/>
<path d="M174.202 209.259C175.164 209.288 176.484 209.241 177.267 209.822C174.579 209.994 171.223 210.382 168.517 210.724L168.315 210.775C165.537 211.458 161.57 211.834 159.008 212.56C148.628 215.499 138.826 219.668 129.875 225.748C127.854 227.122 126.35 228.667 124.476 230.047C124.208 230.611 124.272 230.712 124.397 231.317L122.322 231.688L121.619 231.629C121.026 231.04 119.198 231.075 117.848 230.589L117.742 230.49C116.699 230.014 109.212 230.004 107.231 229.789L109.745 229.797C123.708 218.845 146.015 209.688 163.999 209.629C166.38 209.284 171.655 209.303 174.202 209.259Z" fill="#25381B"/>
<path d="M174.202 209.259C175.164 209.288 176.484 209.241 177.267 209.822C174.579 209.994 171.223 210.382 168.517 210.724C169.604 209.928 171.204 209.998 172.668 209.795C169.613 209.828 167.05 209.817 163.999 209.629C166.38 209.284 171.655 209.303 174.202 209.259Z" fill="#58602A"/>
<path d="M117.848 230.589C119.126 229.813 122.836 230.039 124.476 230.047C124.208 230.611 124.272 230.712 124.397 231.317L122.322 231.688L121.619 231.629C121.026 231.04 119.198 231.075 117.848 230.589Z" fill="#58602A"/>
<path d="M72.2607 223.982C73.6202 222.948 76.2481 221.477 77.7864 220.644C88.2269 214.997 100.744 210.209 112.536 208.267C115.606 207.762 119.207 207.807 122.328 207.573C124.423 207.415 126.397 207.177 128.472 206.964C129.453 206.993 130.396 206.911 131.233 207.358C127.851 208.098 122.531 209.065 119.5 209.895C108.787 212.829 91.8888 219.694 83.2119 226.693C80.9284 226.359 74.106 224.919 72.2607 223.982Z" fill="#969B4E"/>
<path d="M175.039 208.609C177.585 208.693 178.562 209.159 180.927 209.612C179.835 209.789 178.297 210.119 177.267 209.822C176.484 209.241 175.164 209.288 174.202 209.259L175.039 208.609Z" fill="#8E9047"/>
<path d="M128.472 206.964C131.133 206.498 134.674 206.242 137.326 206.39C136.154 206.64 132.228 207.495 131.233 207.358C130.396 206.911 129.453 206.993 128.472 206.964Z" fill="#58602A"/>
<path d="M111.987 201.212C114.014 201.275 115.584 201.766 117.313 202.854L117.728 203.011L117.754 203.386C117.002 204.026 113.173 203.998 111.848 204.117C111.82 202.898 111.801 202.427 111.987 201.212Z" fill="#63692F"/>
<path d="M108.823 178.989C109.094 180.283 109.341 181.443 109.518 182.753L109.132 182.984C108.918 183.856 108.947 185.265 109.082 186.147L108.692 187.424C108.787 184.714 108.566 181.616 108.823 178.989Z" fill="#212D15" fill-opacity="0.239216"/>
<path d="M109.082 186.147C108.947 185.265 108.918 183.856 109.132 182.984L109.518 182.753L110.023 185.327C109.769 185.787 109.713 186.172 109.082 186.147Z" fill="#212D15" fill-opacity="0.0235294"/>
<path d="M252.833 175.251C254.104 175.099 255.312 175.193 256.588 175.251C257.063 175.605 257.615 175.9 258.132 176.197C258.569 176.879 259.02 177.579 259.223 178.37C261.899 188.748 244.32 209.407 238.225 216.728C236.34 218.993 233.266 221.893 231.917 224.33C229.872 228.027 227.622 239.344 227.756 243.567C227.813 245.346 228.367 247.339 229.745 248.558C230.658 249.366 231.884 249.698 233.088 249.545C238.005 248.915 248.741 239.284 251.393 235.255C253.651 231.826 254.561 227.945 257.254 224.423C259.822 221.063 262.838 218.726 267.081 218.142C268.107 216.728 269.065 215.694 270.664 214.919C274.134 213.237 280.053 213.543 281.619 217.703C283.773 223.419 281.974 229.659 279.913 235.106C290.909 231.368 295.083 223.59 302.773 215.988C303.633 214.974 306.569 215.009 307.383 216.01C309.307 218.375 306.409 223.116 305.462 225.153C303.979 228.343 295.083 246.037 297.788 248.326C302.377 248.082 314.59 229.662 316.524 225.159C317.213 224.088 318.583 221.179 319.61 220.597C322.436 219.028 325.699 220.283 324.37 223.979C322.457 229.305 317.178 241.274 319.065 246.656C321.839 254.568 331.332 241.325 332.78 238C334.341 234.267 337.034 229.787 337.544 225.502C338.057 221.204 337.475 220.349 338.732 215.922C338.849 215.824 338.967 215.729 339.086 215.635C340.106 214.837 341.221 214.375 342.558 214.589C343.34 214.712 344.035 215.155 344.472 215.813C348.774 222.178 330.98 257.36 319.173 253.368C311.352 250.724 312.615 243.149 313.626 237.204C310.659 241.655 301.332 256.622 294.654 252.738C287.167 248.386 295.337 231.561 298.237 225.899C296.935 226.888 295.163 228.857 293.91 230.049C288.629 235.069 285.085 236.825 278.166 238.32C274.329 245.192 267.879 253.76 259.17 253.461C251.104 253.186 250.669 246.435 250.825 240.178C249.756 241.247 248.879 242.513 247.859 243.635C244.494 247.348 240.069 251.45 235.292 253.179C232.563 254.168 229.331 254.451 226.654 253.143C224.556 252.117 223.074 250.181 222.368 247.977C218.734 236.648 229.058 208.47 234.419 198.055C238.141 190.82 244.66 177.882 252.833 175.251ZM264.754 247.721C268.213 245.036 271.119 241.707 273.31 237.914C262.598 235.475 264.94 226.275 264.075 225.378C260.289 230.775 257.043 236.466 256.6 243.188C256.218 248.954 260.156 250.25 264.754 247.721ZM234.3 217.04C239.556 210.242 254.81 190.228 254.162 181.537C254.094 181.427 253.934 181.146 253.852 181.068C246.853 186.199 236.851 208.336 234.117 216.831L234.3 217.04ZM273.933 234.189C274.675 234.527 274.661 234.673 275.321 234.568C276.985 231.772 281.726 217.221 274.893 218.076C268.488 220.316 267.243 230.416 273.933 234.189Z" fill="#25381B"/>
<path d="M165.012 267.582C182.678 267.058 197.042 274.903 213.71 278.987C245.489 286.775 274.202 264.726 305.876 268.057C317.492 269.278 331 273.996 339.267 282.496C339.615 282.855 339.607 283.317 339.529 283.75C339.347 283.867 339.164 283.986 338.98 284.103C337.298 283.723 332.891 280.976 331.523 280.211C319.737 273.621 302.933 270.708 289.724 273.729C281.07 274.913 272.368 277.731 264.124 280.414C249.238 285.475 236.227 288.006 220.406 286.896C199.244 285.413 181.616 271.274 159.82 273.071C148.199 274.029 136.68 277.37 126.208 282.441C123.895 283.561 119.352 286.548 116.903 285.85C116.339 285.333 116.527 285.637 116.304 284.917C116.743 282.215 123.92 279.161 126.325 277.906C138.694 271.444 151.073 268.191 165.012 267.582Z" fill="#25381B"/>
<path d="M214.011 170.159C214.177 168.812 214.565 164.762 214.832 163.866C216.973 156.677 221.601 149.61 227.684 145.195C236.492 138.805 245.335 136.377 255.962 135.771C256.864 149.694 247.628 164.78 233.713 168.455C228.97 169.707 224.409 170.956 220.49 174.12C220.053 173.794 220.037 173.835 219.875 173.326C220.272 169.665 230.227 157.948 233.137 154.831C233.922 153.991 237.413 150.355 237.72 149.84C239.605 148.481 241.537 147.425 243.497 146.192C237.419 148.279 230.118 153.171 225.213 157.272C224.388 157.935 223.25 159.15 222.471 159.937C222.807 158.159 223.381 155.699 224.07 154.037L223.662 153.909C219.649 157.495 217.682 166.737 214.011 170.159Z" fill="#63692F"/>
<path d="M224.07 154.037C224.183 153.824 227.38 150.902 227.76 150.603C226.669 152.955 225.935 154.732 225.213 157.272C224.388 157.935 223.25 159.15 222.471 159.937C222.807 158.159 223.381 155.699 224.07 154.037Z" fill="#AEAD63"/>
<path d="M89.7609 134.368C89.9266 133.755 90.5832 132.826 91.1626 132.601L91.3137 133.119C91.7852 134.256 92.6783 134.357 93.4615 135.321C93.1024 136.27 91.5502 136.273 90.6571 136.628L90.5898 136.834C90.4114 135.882 90.363 135.42 89.8341 134.601L89.7609 134.368Z" fill="#787B39"/>
<path d="M101.267 161.001L100.963 161.279C100.168 161.218 98.9982 160.314 99.0158 159.39C99.7674 158.963 99.6218 159.11 100.628 159.129C100.822 159.504 101.038 159.844 101.28 160.189L101.267 161.001Z" fill="#8E9047" fill-opacity="0.988235"/>
<path d="M91.1625 132.601C92.1637 132.218 92.0173 132.093 92.9574 132.321C93.4883 132.861 93.4407 132.65 93.5197 133.269C92.9904 133.825 93.3038 133.656 92.5448 133.79C92.1373 133.56 91.7269 133.337 91.3137 133.119L91.1625 132.601Z" fill="#58602A"/>
<path d="M205.425 194.303L205.568 194.552C205.9 194.014 205.958 193.939 206.405 193.48L206.516 193.367C206.112 195.184 205.599 196.949 205.097 198.74C205.109 197.844 205.09 194.984 205.425 194.303Z" fill="#081206" fill-opacity="0.0431373"/>
<path d="M51.9867 151.853C52.5728 151.726 53.1603 151.605 53.7491 151.49C53.2897 152.319 52.7145 152.641 51.9487 153.209L51.6354 152.562L51.9867 151.853Z" fill="#212D15" fill-opacity="0.0117647"/>
</svg>
