<svg width="28" height="28" viewBox="0 0 28 28" fill="none" xmlns="http://www.w3.org/2000/svg">
<mask id="mask0_268_1055" style="mask-type:alpha" maskUnits="userSpaceOnUse" x="0" y="0" width="28" height="28">
<rect width="27.79" height="27.79" fill="#D9D9D9"/>
</mask>
<g mask="url(#mask0_268_1055)">
<path d="M11.6448 15.8818C10.9694 15.2064 10.6317 14.3862 10.6317 13.4213V6.47375C10.6317 5.50882 10.9694 4.68863 11.6448 4.01318C12.3203 3.33773 13.1405 3 14.1054 3C15.0703 3 15.8905 3.33773 16.566 4.01318C17.2414 4.68863 17.5792 5.50882 17.5792 6.47375V13.4213C17.5792 14.3862 17.2414 15.2064 16.566 15.8818C15.8905 16.5573 15.0703 16.895 14.1054 16.895C13.1405 16.895 12.3203 16.5573 11.6448 15.8818ZM12.9475 25.0004V21.4398C10.9404 21.1696 9.28076 20.2723 7.96846 18.7477C6.65615 17.2231 6 15.4476 6 13.4213H8.31583C8.31583 15.023 8.88032 16.3884 10.0093 17.5174C11.1383 18.6463 12.5036 19.2108 14.1054 19.2108C15.7072 19.2108 17.0726 18.6463 18.2015 17.5174C19.3305 16.3884 19.895 15.023 19.895 13.4213H22.2108C22.2108 15.4476 21.5547 17.2231 20.2424 18.7477C18.9301 20.2723 17.2704 21.1696 15.2633 21.4398V25.0004H12.9475ZM14.9304 14.2463C15.1524 14.0243 15.2633 13.7493 15.2633 13.4213V6.47375C15.2633 6.14567 15.1524 5.87067 14.9304 5.64873C14.7085 5.4268 14.4335 5.31583 14.1054 5.31583C13.7773 5.31583 13.5023 5.4268 13.2804 5.64873C13.0585 5.87067 12.9475 6.14567 12.9475 6.47375V13.4213C12.9475 13.7493 13.0585 14.0243 13.2804 14.2463C13.5023 14.4682 13.7773 14.5792 14.1054 14.5792C14.4335 14.5792 14.7085 14.4682 14.9304 14.2463Z" fill="white"/>
</g>
</svg>
