<svg width="28" height="28" viewBox="0 0 28 28" fill="none" xmlns="http://www.w3.org/2000/svg">
<mask id="mask0_268_1085" style="mask-type:alpha" maskUnits="userSpaceOnUse" x="0" y="0" width="28" height="28">
<rect width="27.79" height="27.79" fill="#D9D9D9"/>
</mask>
<g mask="url(#mask0_268_1085)">
<path d="M12.2739 19.2215L20.4373 11.0582L18.8162 9.43711L12.2739 15.9793L8.97388 12.6793L7.35279 14.3004L12.2739 19.2215ZM13.895 25.4743C12.2932 25.4743 10.7879 25.1703 9.37915 24.5624C7.97035 23.9545 6.74489 23.1295 5.70276 22.0873C4.66064 21.0452 3.83562 19.8198 3.22772 18.411C2.61981 17.0022 2.31586 15.4969 2.31586 13.8951C2.31586 12.2933 2.61981 10.788 3.22772 9.37921C3.83562 7.97041 4.66064 6.74495 5.70276 5.70282C6.74489 4.6607 7.97035 3.83568 9.37915 3.22778C10.7879 2.61987 12.2932 2.31592 13.895 2.31592C15.4968 2.31592 17.0021 2.61987 18.4109 3.22778C19.8197 3.83568 21.0452 4.6607 22.0873 5.70282C23.1294 6.74495 23.9544 7.97041 24.5623 9.37921C25.1702 10.788 25.4742 12.2933 25.4742 13.8951C25.4742 15.4969 25.1702 17.0022 24.5623 18.411C23.9544 19.8198 23.1294 21.0452 22.0873 22.0873C21.0452 23.1295 19.8197 23.9545 18.4109 24.5624C17.0021 25.1703 15.4968 25.4743 13.895 25.4743Z" fill="#0F5F36"/>
</g>
</svg>
