<svg width="28" height="28" viewBox="0 0 28 28" fill="none" xmlns="http://www.w3.org/2000/svg">
<mask id="mask0_267_824" style="mask-type:alpha" maskUnits="userSpaceOnUse" x="0" y="0" width="28" height="28">
<rect width="27.79" height="27.79" fill="#D9D9D9"/>
</mask>
<g mask="url(#mask0_267_824)">
<path d="M2.31583 27.7901V23.1584H25.4742V27.7901H2.31583ZM6.94749 18.5268H8.56858L17.6003 9.52395L15.9503 7.87392L6.94749 16.9057V18.5268ZM4.63166 20.8426V15.9214L17.6003 2.98172C17.8126 2.76944 18.0587 2.6054 18.3385 2.48961C18.6183 2.37381 18.9126 2.31592 19.2214 2.31592C19.5302 2.31592 19.8293 2.37381 20.1188 2.48961C20.4083 2.6054 20.6688 2.77908 20.9004 3.01067L22.4925 4.63175C22.7241 4.84404 22.893 5.09492 22.9991 5.3844C23.1053 5.67388 23.1583 5.973 23.1583 6.28178C23.1583 6.57126 23.1053 6.85592 22.9991 7.13575C22.893 7.41558 22.7241 7.67128 22.4925 7.90287L9.55281 20.8426H4.63166Z" fill="white"/>
</g>
</svg>
