<svg width="28" height="28" viewBox="0 0 28 28" fill="none" xmlns="http://www.w3.org/2000/svg">
<mask id="mask0_268_1045" style="mask-type:alpha" maskUnits="userSpaceOnUse" x="0" y="0" width="28" height="28">
<rect width="27.79" height="27.79" fill="#D9D9D9"/>
</mask>
<g mask="url(#mask0_268_1045)">
<path d="M5.78959 25.4743C5.15273 25.4743 4.60755 25.2475 4.15403 24.794C3.70051 24.3405 3.47375 23.7953 3.47375 23.1584V6.94758C3.47375 6.31073 3.70051 5.76554 4.15403 5.31203C4.60755 4.85851 5.15273 4.63175 5.78959 4.63175H6.9475V2.31592H9.26334V4.63175H18.5267V2.31592H20.8425V4.63175H22.0004C22.6373 4.63175 23.1825 4.85851 23.636 5.31203C24.0895 5.76554 24.3163 6.31073 24.3163 6.94758V23.1584C24.3163 23.7953 24.0895 24.3405 23.636 24.794C23.1825 25.2475 22.6373 25.4743 22.0004 25.4743H5.78959ZM5.78959 23.1584H22.0004V11.5793H5.78959V23.1584ZM5.78959 9.26342H22.0004V6.94758H5.78959V9.26342ZM13.895 16.2109C13.5669 16.2109 13.2919 16.1 13.07 15.878C12.8481 15.6561 12.7371 15.3811 12.7371 15.053C12.7371 14.7249 12.8481 14.4499 13.07 14.228C13.2919 14.0061 13.5669 13.8951 13.895 13.8951C14.2231 13.8951 14.4981 14.0061 14.72 14.228C14.942 14.4499 15.0529 14.7249 15.0529 15.053C15.0529 15.3811 14.942 15.6561 14.72 15.878C14.4981 16.1 14.2231 16.2109 13.895 16.2109ZM8.43832 15.878C8.21639 15.6561 8.10542 15.3811 8.10542 15.053C8.10542 14.7249 8.21639 14.4499 8.43832 14.228C8.66026 14.0061 8.93526 13.8951 9.26334 13.8951C9.59141 13.8951 9.86642 14.0061 10.0884 14.228C10.3103 14.4499 10.4213 14.7249 10.4213 15.053C10.4213 15.3811 10.3103 15.6561 10.0884 15.878C9.86642 16.1 9.59141 16.2109 9.26334 16.2109C8.93526 16.2109 8.66026 16.1 8.43832 15.878ZM18.5267 16.2109C18.1986 16.2109 17.9236 16.1 17.7017 15.878C17.4797 15.6561 17.3688 15.3811 17.3688 15.053C17.3688 14.7249 17.4797 14.4499 17.7017 14.228C17.9236 14.0061 18.1986 13.8951 18.5267 13.8951C18.8547 13.8951 19.1298 14.0061 19.3517 14.228C19.5736 14.4499 19.6846 14.7249 19.6846 15.053C19.6846 15.3811 19.5736 15.6561 19.3517 15.878C19.1298 16.1 18.8547 16.2109 18.5267 16.2109ZM13.895 20.8426C13.5669 20.8426 13.2919 20.7316 13.07 20.5097C12.8481 20.2878 12.7371 20.0127 12.7371 19.6847C12.7371 19.3566 12.8481 19.0816 13.07 18.8597C13.2919 18.6377 13.5669 18.5268 13.895 18.5268C14.2231 18.5268 14.4981 18.6377 14.72 18.8597C14.942 19.0816 15.0529 19.3566 15.0529 19.6847C15.0529 20.0127 14.942 20.2878 14.72 20.5097C14.4981 20.7316 14.2231 20.8426 13.895 20.8426ZM8.43832 20.5097C8.21639 20.2878 8.10542 20.0127 8.10542 19.6847C8.10542 19.3566 8.21639 19.0816 8.43832 18.8597C8.66026 18.6377 8.93526 18.5268 9.26334 18.5268C9.59141 18.5268 9.86642 18.6377 10.0884 18.8597C10.3103 19.0816 10.4213 19.3566 10.4213 19.6847C10.4213 20.0127 10.3103 20.2878 10.0884 20.5097C9.86642 20.7316 9.59141 20.8426 9.26334 20.8426C8.93526 20.8426 8.66026 20.7316 8.43832 20.5097ZM18.5267 20.8426C18.1986 20.8426 17.9236 20.7316 17.7017 20.5097C17.4797 20.2878 17.3688 20.0127 17.3688 19.6847C17.3688 19.3566 17.4797 19.0816 17.7017 18.8597C17.9236 18.6377 18.1986 18.5268 18.5267 18.5268C18.8547 18.5268 19.1298 18.6377 19.3517 18.8597C19.5736 19.0816 19.6846 19.3566 19.6846 19.6847C19.6846 20.0127 19.5736 20.2878 19.3517 20.5097C19.1298 20.7316 18.8547 20.8426 18.5267 20.8426Z" fill="white"/>
</g>
</svg>
