<svg width="28" height="28" viewBox="0 0 28 28" fill="none" xmlns="http://www.w3.org/2000/svg">
<mask id="mask0_268_1074" style="mask-type:alpha" maskUnits="userSpaceOnUse" x="0" y="0" width="28" height="28">
<rect width="27.79" height="27.79" fill="#D9D9D9"/>
</mask>
<g mask="url(#mask0_268_1074)">
<path d="M17.5753 21.8464C16.7358 21.0069 16.316 19.9792 16.316 18.7634C16.316 17.5476 16.7358 16.52 17.5753 15.6805C18.4148 14.841 19.4424 14.4213 20.6582 14.4213C21.874 14.4213 22.9017 14.841 23.7412 15.6805C24.5807 16.52 25.0004 17.5476 25.0004 18.7634C25.0004 19.9792 24.5807 21.0069 23.7412 21.8464C22.9017 22.6859 21.874 23.1056 20.6582 23.1056C19.4424 23.1056 18.4148 22.6859 17.5753 21.8464ZM22.0912 20.1964C22.4868 19.8007 22.6846 19.3231 22.6846 18.7634C22.6846 18.2038 22.4868 17.7261 22.0912 17.3305C21.6955 16.9349 21.2179 16.7371 20.6582 16.7371C20.0986 16.7371 19.6209 16.9349 19.2253 17.3305C18.8297 17.7261 18.6319 18.2038 18.6319 18.7634C18.6319 19.3231 18.8297 19.8007 19.2253 20.1964C19.6209 20.592 20.0986 20.7898 20.6582 20.7898C21.2179 20.7898 21.6955 20.592 22.0912 20.1964ZM4.73688 19.9214V17.6055H14.0002V19.9214H4.73688ZM4.25923 11.4251C3.41974 10.5857 3 9.558 3 8.34219C3 7.12637 3.41974 6.09872 4.25923 5.25923C5.09872 4.41974 6.12638 4 7.34219 4C8.558 4 9.58565 4.41974 10.4251 5.25923C11.2646 6.09872 11.6844 7.12637 11.6844 8.34219C11.6844 9.558 11.2646 10.5857 10.4251 11.4251C9.58565 12.2646 8.558 12.6844 7.34219 12.6844C6.12638 12.6844 5.09872 12.2646 4.25923 11.4251ZM8.77511 9.77511C9.17073 9.37949 9.36854 8.90185 9.36854 8.34219C9.36854 7.78253 9.17073 7.30489 8.77511 6.90927C8.37949 6.51364 7.90185 6.31583 7.34219 6.31583C6.78253 6.31583 6.30489 6.51364 5.90927 6.90927C5.51364 7.30489 5.31583 7.78253 5.31583 8.34219C5.31583 8.90185 5.51364 9.37949 5.90927 9.77511C6.30489 10.1707 6.78253 10.3685 7.34219 10.3685C7.90185 10.3685 8.37949 10.1707 8.77511 9.77511ZM14.0002 9.5001V7.18427H23.2635V9.5001H14.0002Z" fill="white"/>
</g>
</svg>
