<svg width="28" height="28" viewBox="0 0 28 28" fill="none" xmlns="http://www.w3.org/2000/svg">
<mask id="mask0_268_1039" style="mask-type:alpha" maskUnits="userSpaceOnUse" x="0" y="0" width="28" height="28">
<rect width="27.79" height="27.79" fill="#D9D9D9"/>
</mask>
<g mask="url(#mask0_268_1039)">
<path d="M13.895 20.2634C15.3424 20.2634 16.5727 19.7568 17.5859 18.7437C18.599 17.7305 19.1056 16.5002 19.1056 15.0528C19.1056 13.6054 18.599 12.3751 17.5859 11.3619C16.5727 10.3488 15.3424 9.84217 13.895 9.84217C12.4476 9.84217 11.2173 10.3488 10.2041 11.3619C9.19097 12.3751 8.68438 13.6054 8.68438 15.0528C8.68438 16.5002 9.19097 17.7305 10.2041 18.7437C11.2173 19.7568 12.4476 20.2634 13.895 20.2634ZM13.895 17.9476C13.0845 17.9476 12.3994 17.6678 11.8397 17.1081C11.28 16.5484 11.0002 15.8633 11.0002 15.0528C11.0002 14.2423 11.28 13.5572 11.8397 12.9975C12.3994 12.4378 13.0845 12.158 13.895 12.158C14.7055 12.158 15.3906 12.4378 15.9503 12.9975C16.51 13.5572 16.7898 14.2423 16.7898 15.0528C16.7898 15.8633 16.51 16.5484 15.9503 17.1081C15.3906 17.6678 14.7055 17.9476 13.895 17.9476ZM4.63167 24.3161C3.99481 24.3161 3.44963 24.0894 2.99611 23.6359C2.54259 23.1823 2.31583 22.6372 2.31583 22.0003V8.1053C2.31583 7.46845 2.54259 6.92326 2.99611 6.46974C3.44963 6.01622 3.99481 5.78947 4.63167 5.78947H8.27911L10.4213 3.47363H17.3688L19.5109 5.78947H23.1583C23.7952 5.78947 24.3404 6.01622 24.7939 6.46974C25.2474 6.92326 25.4742 7.46845 25.4742 8.1053V22.0003C25.4742 22.6372 25.2474 23.1823 24.7939 23.6359C24.3404 24.0894 23.7952 24.3161 23.1583 24.3161H4.63167ZM4.63167 22.0003H23.1583V8.1053H18.4688L16.3556 5.78947H11.4344L9.32123 8.1053H4.63167V22.0003Z" fill="white"/>
</g>
</svg>
