<svg width="28" height="28" viewBox="0 0 28 28" fill="none" xmlns="http://www.w3.org/2000/svg">
<mask id="mask0_268_1069" style="mask-type:alpha" maskUnits="userSpaceOnUse" x="0" y="0" width="28" height="28">
<rect width="27.79" height="27.79" fill="#D9D9D9"/>
</mask>
<g mask="url(#mask0_268_1069)">
<path d="M8.10542 10.4213V8.10547H24.3163V10.4213H8.10542ZM8.10542 15.053V12.7371H24.3163V15.053H8.10542ZM8.10542 19.6846V17.3688H24.3163V19.6846H8.10542ZM4.63167 10.4213C4.3036 10.4213 4.02859 10.3103 3.80666 10.0884C3.58472 9.86647 3.47375 9.59146 3.47375 9.26339C3.47375 8.93531 3.58472 8.6603 3.80666 8.43837C4.02859 8.21644 4.3036 8.10547 4.63167 8.10547C4.95975 8.10547 5.23475 8.21644 5.45669 8.43837C5.67862 8.6603 5.78959 8.93531 5.78959 9.26339C5.78959 9.59146 5.67862 9.86647 5.45669 10.0884C5.23475 10.3103 4.95975 10.4213 4.63167 10.4213ZM4.63167 15.053C4.3036 15.053 4.02859 14.942 3.80666 14.7201C3.58472 14.4981 3.47375 14.2231 3.47375 13.8951C3.47375 13.567 3.58472 13.292 3.80666 13.07C4.02859 12.8481 4.3036 12.7371 4.63167 12.7371C4.95975 12.7371 5.23475 12.8481 5.45669 13.07C5.67862 13.292 5.78959 13.567 5.78959 13.8951C5.78959 14.2231 5.67862 14.4981 5.45669 14.7201C5.23475 14.942 4.95975 15.053 4.63167 15.053ZM4.63167 19.6846C4.3036 19.6846 4.02859 19.5737 3.80666 19.3517C3.58472 19.1298 3.47375 18.8548 3.47375 18.5267C3.47375 18.1986 3.58472 17.9236 3.80666 17.7017C4.02859 17.4798 4.3036 17.3688 4.63167 17.3688C4.95975 17.3688 5.23475 17.4798 5.45669 17.7017C5.67862 17.9236 5.78959 18.1986 5.78959 18.5267C5.78959 18.8548 5.67862 19.1298 5.45669 19.3517C5.23475 19.5737 4.95975 19.6846 4.63167 19.6846Z" fill="white"/>
</g>
</svg>
