<svg width="28" height="28" viewBox="0 0 28 28" fill="none" xmlns="http://www.w3.org/2000/svg">
<mask id="mask0_268_1029" style="mask-type:alpha" maskUnits="userSpaceOnUse" x="0" y="0" width="28" height="28">
<rect width="27.79" height="27.79" fill="#D9D9D9"/>
</mask>
<g mask="url(#mask0_268_1029)">
<path d="M8.88704 24.5043C7.59403 23.8577 6.94753 23.0231 6.94753 22.0003C6.94753 21.5371 7.08744 21.1077 7.36727 20.7121C7.6471 20.3165 8.0379 19.9739 8.53966 19.6844L10.3634 21.3924C10.1897 21.4695 10.0015 21.5564 9.7989 21.6529C9.59626 21.7494 9.43705 21.8652 9.32126 22.0003C9.57214 22.309 10.1511 22.5792 11.0581 22.8108C11.9652 23.0424 12.9108 23.1582 13.895 23.1582C14.8793 23.1582 15.8297 23.0424 16.7464 22.8108C17.6631 22.5792 18.2469 22.309 18.4977 22.0003C18.3627 21.8459 18.189 21.7204 17.9767 21.6239C17.7644 21.5274 17.5618 21.4406 17.3688 21.3634L19.1635 19.6265C19.7039 19.9353 20.1188 20.2875 20.4083 20.6831C20.6978 21.0787 20.8425 21.5178 20.8425 22.0003C20.8425 23.0231 20.196 23.8577 18.903 24.5043C17.61 25.1508 15.9407 25.474 13.895 25.474C11.8494 25.474 10.18 25.1508 8.88704 24.5043ZM13.924 19.1055C15.8345 17.6967 17.2723 16.283 18.2372 14.8646C19.2021 13.4461 19.6846 12.0229 19.6846 10.5948C19.6846 8.62632 19.0574 7.14033 17.803 6.1368C16.5486 5.13327 15.2459 4.63151 13.895 4.63151C12.5441 4.63151 11.2415 5.13327 9.98706 6.1368C8.73265 7.14033 8.10545 8.62632 8.10545 10.5948C8.10545 11.8878 8.57826 13.2339 9.52389 14.633C10.4695 16.0322 11.9362 17.523 13.924 19.1055ZM13.895 22.0003C11.1739 19.9932 9.14275 18.044 7.80149 16.1528C6.46024 14.2615 5.78961 12.4088 5.78961 10.5948C5.78961 9.22458 6.03567 8.02324 6.52778 6.99076C7.0199 5.95829 7.65193 5.09467 8.42387 4.39992C9.19582 3.70517 10.0643 3.18411 11.0292 2.83674C11.9941 2.48936 12.9494 2.31567 13.895 2.31567C14.8407 2.31567 15.7959 2.48936 16.7609 2.83674C17.7258 3.18411 18.5942 3.70517 19.3662 4.39992C20.1381 5.09467 20.7702 5.95829 21.2623 6.99076C21.7544 8.02324 22.0004 9.22458 22.0004 10.5948C22.0004 12.4088 21.3298 14.2615 19.9886 16.1528C18.6473 18.044 16.6161 19.9932 13.895 22.0003ZM13.895 12.7369C14.5319 12.7369 15.0771 12.5102 15.5306 12.0566C15.9841 11.6031 16.2109 11.0579 16.2109 10.4211C16.2109 9.78424 15.9841 9.23905 15.5306 8.78553C15.0771 8.33202 14.5319 8.10526 13.895 8.10526C13.2582 8.10526 12.713 8.33202 12.2595 8.78553C11.806 9.23905 11.5792 9.78424 11.5792 10.4211C11.5792 11.0579 11.806 11.6031 12.2595 12.0566C12.713 12.5102 13.2582 12.7369 13.895 12.7369Z" fill="white"/>
</g>
</svg>
