<svg width="28" height="28" viewBox="0 0 28 28" fill="none" xmlns="http://www.w3.org/2000/svg">
<mask id="mask0_268_1064" style="mask-type:alpha" maskUnits="userSpaceOnUse" x="0" y="0" width="28" height="28">
<rect width="27.79" height="27.79" fill="#D9D9D9"/>
</mask>
<g mask="url(#mask0_268_1064)">
<path d="M23.2613 24.7022L16.7769 18.2179C16.2623 18.6296 15.6705 18.9555 15.0014 19.1957C14.3324 19.4358 13.6205 19.5559 12.8657 19.5559C10.9959 19.5559 9.41343 18.9083 8.11828 17.6132C6.82313 16.318 6.17555 14.7355 6.17555 12.8657C6.17555 10.9959 6.82313 9.41341 8.11828 8.11826C9.41343 6.82311 10.9959 6.17554 12.8657 6.17554C14.7356 6.17554 16.318 6.82311 17.6132 8.11826C18.9083 9.41341 19.5559 10.9959 19.5559 12.8657C19.5559 13.6205 19.4358 14.3324 19.1957 15.0014C18.9555 15.6705 18.6296 16.2623 18.2179 16.7769L24.7022 23.2612L23.2613 24.7022ZM12.8657 17.4974C14.1523 17.4974 15.2459 17.0471 16.1465 16.1465C17.0471 15.2459 17.4974 14.1523 17.4974 12.8657C17.4974 11.5791 17.0471 10.4856 16.1465 9.58496C15.2459 8.68436 14.1523 8.23406 12.8657 8.23406C11.5792 8.23406 10.4856 8.68436 9.58497 9.58496C8.68437 10.4856 8.23407 11.5791 8.23407 12.8657C8.23407 14.1523 8.68437 15.2459 9.58497 16.1465C10.4856 17.0471 11.5792 17.4974 12.8657 17.4974Z" fill="white"/>
</g>
</svg>
