<svg width="28" height="28" viewBox="0 0 28 28" fill="none" xmlns="http://www.w3.org/2000/svg">
<mask id="mask0_268_840" style="mask-type:alpha" maskUnits="userSpaceOnUse" x="0" y="0" width="28" height="28">
<rect width="27.79" height="27.79" fill="#D9D9D9"/>
</mask>
<g mask="url(#mask0_268_840)">
<path d="M8.10542 23.1583L3.47375 18.5266L8.10542 13.8949L9.75545 15.516L7.90279 17.3687H12.7371V19.6845H7.90279L9.7265 21.5372L8.10542 23.1583ZM16.2108 19.6845C15.8828 19.6845 15.6078 19.5735 15.3858 19.3516C15.1639 19.1297 15.0529 18.8547 15.0529 18.5266C15.0529 18.1985 15.1639 17.9235 15.3858 17.7016C15.6078 17.4796 15.8828 17.3687 16.2108 17.3687C16.5389 17.3687 16.8139 17.4796 17.0359 17.7016C17.2578 17.9235 17.3688 18.1985 17.3688 18.5266C17.3688 18.8547 17.2578 19.1297 17.0359 19.3516C16.8139 19.5735 16.5389 19.6845 16.2108 19.6845ZM20.8425 19.6845C20.5144 19.6845 20.2394 19.5735 20.0175 19.3516C19.7956 19.1297 19.6846 18.8547 19.6846 18.5266C19.6846 18.1985 19.7956 17.9235 20.0175 17.7016C20.2394 17.4796 20.5144 17.3687 20.8425 17.3687C21.1706 17.3687 21.4456 17.4796 21.6675 17.7016C21.8895 17.9235 22.0004 18.1985 22.0004 18.5266C22.0004 18.8547 21.8895 19.1297 21.6675 19.3516C21.4456 19.5735 21.1706 19.6845 20.8425 19.6845ZM19.6846 13.8949L18.0346 12.2738L19.8872 10.4212H15.0529V8.10534H19.8872L18.0635 6.25268L19.6846 4.63159L24.3163 9.26326L19.6846 13.8949ZM6.9475 10.4212C6.61943 10.4212 6.34442 10.3102 6.12249 10.0883C5.90056 9.86634 5.78959 9.59133 5.78959 9.26326C5.78959 8.93518 5.90056 8.66018 6.12249 8.43824C6.34442 8.21631 6.61943 8.10534 6.9475 8.10534C7.27558 8.10534 7.55059 8.21631 7.77252 8.43824C7.99445 8.66018 8.10542 8.93518 8.10542 9.26326C8.10542 9.59133 7.99445 9.86634 7.77252 10.0883C7.55059 10.3102 7.27558 10.4212 6.9475 10.4212ZM11.5792 10.4212C11.2511 10.4212 10.9761 10.3102 10.7542 10.0883C10.5322 9.86634 10.4213 9.59133 10.4213 9.26326C10.4213 8.93518 10.5322 8.66018 10.7542 8.43824C10.9761 8.21631 11.2511 8.10534 11.5792 8.10534C11.9072 8.10534 12.1823 8.21631 12.4042 8.43824C12.6261 8.66018 12.7371 8.93518 12.7371 9.26326C12.7371 9.59133 12.6261 9.86634 12.4042 10.0883C12.1823 10.3102 11.9072 10.4212 11.5792 10.4212Z" fill="white"/>
</g>
</svg>
