<svg width="28" height="28" viewBox="0 0 28 28" fill="none" xmlns="http://www.w3.org/2000/svg">
<mask id="mask0_268_886" style="mask-type:alpha" maskUnits="userSpaceOnUse" x="0" y="0" width="28" height="28">
<rect width="27.79" height="27.79" fill="#D9D9D9"/>
</mask>
<g mask="url(#mask0_268_886)">
<path d="M5 21.6846V19.3688H7.31583V11.2633C7.31583 9.66155 7.7983 8.23828 8.76323 6.99352C9.72816 5.74876 10.9826 4.93339 12.5265 4.54742V3.73688C12.5265 3.25441 12.6953 2.84431 13.033 2.50659C13.3708 2.16886 13.7809 2 14.2633 2C14.7458 2 15.1559 2.16886 15.4936 2.50659C15.8313 2.84431 16.0002 3.25441 16.0002 3.73688V4.54742C17.5441 4.93339 18.7985 5.74876 19.7634 6.99352C20.7284 8.23828 21.2108 9.66155 21.2108 11.2633V19.3688H23.5267V21.6846H5ZM14.2633 25.1583C13.6265 25.1583 13.0813 24.9316 12.6278 24.4781C12.1743 24.0245 11.9475 23.4794 11.9475 22.8425H16.5792C16.5792 23.4794 16.3524 24.0245 15.8989 24.4781C15.4454 24.9316 14.9002 25.1583 14.2633 25.1583ZM9.63167 19.3688H18.895V11.2633C18.895 9.98963 18.4415 8.89925 17.5344 7.99222C16.6274 7.08518 15.537 6.63167 14.2633 6.63167C12.9896 6.63167 11.8993 7.08518 10.9922 7.99222C10.0852 8.89925 9.63167 9.98963 9.63167 11.2633V19.3688Z" fill="white"/>
</g>
</svg>
