<svg width="28" height="28" viewBox="0 0 28 28" fill="none" xmlns="http://www.w3.org/2000/svg">
<mask id="mask0_268_861" style="mask-type:alpha" maskUnits="userSpaceOnUse" x="0" y="0" width="28" height="28">
<rect width="27.79" height="27.79" fill="#D9D9D9"/>
</mask>
<g mask="url(#mask0_268_861)">
<path d="M6.31583 25.1583C5.67898 25.1583 5.13379 24.9316 4.68028 24.4781C4.22676 24.0245 4 23.4794 4 22.8425V6.63167C4 5.99481 4.22676 5.44963 4.68028 4.99611C5.13379 4.54259 5.67898 4.31583 6.31583 4.31583H7.47375V2H9.78958V4.31583H19.0529V2H21.3687V4.31583H22.5267C23.1635 4.31583 23.7087 4.54259 24.1622 4.99611C24.6157 5.44963 24.8425 5.99481 24.8425 6.63167V22.8425C24.8425 23.4794 24.6157 24.0245 24.1622 24.4781C23.7087 24.9316 23.1635 25.1583 22.5267 25.1583H6.31583ZM6.31583 22.8425H22.5267V11.2633H6.31583V22.8425ZM6.31583 8.9475H22.5267V6.63167H6.31583V8.9475Z" fill="#1C1B1F"/>
</g>
</svg>
