<svg width="28" height="28" viewBox="0 0 28 28" fill="none" xmlns="http://www.w3.org/2000/svg">
<mask id="mask0_267_828" style="mask-type:alpha" maskUnits="userSpaceOnUse" x="0" y="0" width="28" height="28">
<rect width="27.79" height="27.79" fill="#D9D9D9"/>
</mask>
<g mask="url(#mask0_267_828)">
<path d="M5.78962 24.3161C5.15276 24.3161 4.60758 24.0894 4.15406 23.6359C3.70054 23.1823 3.47379 22.6372 3.47379 22.0003V5.78947C3.47379 5.15261 3.70054 4.60743 4.15406 4.15391C4.60758 3.70039 5.15276 3.47363 5.78962 3.47363H16.2109V5.78947H5.78962V22.0003H22.0005V11.579H24.3163V22.0003C24.3163 22.6372 24.0895 23.1823 23.636 23.6359C23.1825 24.0894 22.6373 24.3161 22.0005 24.3161H5.78962ZM8.10545 19.6845H10.4213V11.579H8.10545V19.6845ZM12.7371 19.6845H15.053V8.1053H12.7371V19.6845ZM17.3688 19.6845H19.6846V15.0528H17.3688V19.6845ZM19.6846 10.4211V8.1053H17.3688V5.78947H19.6846V3.47363H22.0005V5.78947H24.3163V8.1053H22.0005V10.4211H19.6846Z" fill="white"/>
</g>
</svg>
