<svg width="28" height="28" viewBox="0 0 28 28" fill="none" xmlns="http://www.w3.org/2000/svg">
<mask id="mask0_266_800" style="mask-type:alpha" maskUnits="userSpaceOnUse" x="0" y="0" width="28" height="28">
<rect width="27.79" height="27.79" fill="#D9D9D9"/>
</mask>
<g mask="url(#mask0_266_800)">
<path d="M5.78959 24.3163C5.15273 24.3163 4.60755 24.0895 4.15403 23.636C3.70051 23.1825 3.47375 22.6373 3.47375 22.0005V5.78963C3.47375 5.15277 3.70051 4.60759 4.15403 4.15407C4.60755 3.70055 5.15273 3.47379 5.78959 3.47379H10.6528C10.9037 2.77904 11.3235 2.21938 11.9121 1.79481C12.5007 1.37024 13.1617 1.15796 13.895 1.15796C14.6284 1.15796 15.2893 1.37024 15.8779 1.79481C16.4665 2.21938 16.8863 2.77904 17.1372 3.47379H22.0004C22.6373 3.47379 23.1825 3.70055 23.636 4.15407C24.0895 4.60759 24.3163 5.15277 24.3163 5.78963V22.0005C24.3163 22.6373 24.0895 23.1825 23.636 23.636C23.1825 24.0895 22.6373 24.3163 22.0004 24.3163H5.78959ZM5.78959 22.0005H22.0004V5.78963H5.78959V22.0005ZM8.10542 19.6846H16.2108V17.3688H8.10542V19.6846ZM8.10542 15.053H19.6846V12.7371H8.10542V15.053ZM8.10542 10.4213H19.6846V8.10546H8.10542V10.4213ZM14.5174 4.67513C14.6814 4.51109 14.7634 4.30363 14.7634 4.05275C14.7634 3.80187 14.6814 3.59441 14.5174 3.43037C14.3533 3.26633 14.1459 3.18431 13.895 3.18431C13.6441 3.18431 13.4367 3.26633 13.2726 3.43037C13.1086 3.59441 13.0266 3.80187 13.0266 4.05275C13.0266 4.30363 13.1086 4.51109 13.2726 4.67513C13.4367 4.83917 13.6441 4.92119 13.895 4.92119C14.1459 4.92119 14.3533 4.83917 14.5174 4.67513Z" fill="white"/>
</g>
</svg>
