<svg width="28" height="28" viewBox="0 0 28 28" fill="none" xmlns="http://www.w3.org/2000/svg">
<mask id="mask0_268_1034" style="mask-type:alpha" maskUnits="userSpaceOnUse" x="0" y="0" width="28" height="28">
<rect width="27.79" height="27.79" fill="#D9D9D9"/>
</mask>
<g mask="url(#mask0_268_1034)">
<path d="M6.31583 22.5267H7.96586L19.2845 11.208L17.6345 9.558L6.31583 20.8766V22.5267ZM4 24.8425V19.9214L19.2845 4.6658C19.5161 4.45352 19.7718 4.28948 20.0516 4.17369C20.3314 4.0579 20.6258 4 20.9345 4C21.2433 4 21.5424 4.0579 21.8319 4.17369C22.1214 4.28948 22.3723 4.46317 22.5846 4.69475L24.1767 6.31583C24.4083 6.52812 24.5771 6.779 24.6833 7.06848C24.7894 7.35796 24.8425 7.64744 24.8425 7.93692C24.8425 8.24569 24.7894 8.54 24.6833 8.81983C24.5771 9.09966 24.4083 9.35536 24.1767 9.58695L8.92115 24.8425H4ZM18.445 10.3975L17.6345 9.558L19.2845 11.208L18.445 10.3975Z" fill="white"/>
</g>
</svg>
