<svg width="28" height="28" viewBox="0 0 28 28" fill="none" xmlns="http://www.w3.org/2000/svg">
<mask id="mask0_267_820" style="mask-type:alpha" maskUnits="userSpaceOnUse" x="0" y="0" width="28" height="28">
<rect width="27.79" height="27.79" fill="#D9D9D9"/>
</mask>
<g mask="url(#mask0_267_820)">
<path d="M20.8425 15.0528V12.737H25.4742V15.0528H20.8425ZM22.232 23.1583L18.5267 20.3793L19.9162 18.5266L23.6215 21.3056L22.232 23.1583ZM19.9162 9.26326L18.5267 7.41059L22.232 4.63159L23.6215 6.48426L19.9162 9.26326ZM5.78961 22.0003V17.3687H4.63169C3.99484 17.3687 3.44965 17.1419 2.99613 16.6884C2.54262 16.2349 2.31586 15.6897 2.31586 15.0528V12.737C2.31586 12.1002 2.54262 11.555 2.99613 11.1015C3.44965 10.6479 3.99484 10.4212 4.63169 10.4212H9.26336L15.0529 6.94743V20.8424L9.26336 17.3687H8.10544V22.0003H5.78961ZM12.7371 16.7318V11.058L9.90021 12.737H4.63169V15.0528H9.90021L12.7371 16.7318Z" fill="white"/>
</g>
</svg>
