<svg width="28" height="28" viewBox="0 0 28 28" fill="none" xmlns="http://www.w3.org/2000/svg">
<mask id="mask0_268_1080" style="mask-type:alpha" maskUnits="userSpaceOnUse" x="0" y="0" width="28" height="28">
<rect width="27.79" height="27.79" fill="#D9D9D9"/>
</mask>
<g mask="url(#mask0_268_1080)">
<path d="M11.9581 18.9056L20.1214 10.7423L18.5003 9.12119L11.9581 15.6634L8.65802 12.3634L7.03694 13.9844L11.9581 18.9056ZM13.5792 25.1583C11.9774 25.1583 10.4721 24.8544 9.06329 24.2465C7.65449 23.6386 6.42903 22.8136 5.38691 21.7714C4.34478 20.7293 3.51977 19.5038 2.91186 18.095C2.30395 16.6862 2 15.181 2 13.5792C2 11.9774 2.30395 10.4721 2.91186 9.06329C3.51977 7.65449 4.34478 6.42903 5.38691 5.38691C6.42903 4.34478 7.65449 3.51977 9.06329 2.91186C10.4721 2.30395 11.9774 2 13.5792 2C15.181 2 16.6862 2.30395 18.095 2.91186C19.5038 3.51977 20.7293 4.34478 21.7714 5.38691C22.8136 6.42903 23.6386 7.65449 24.2465 9.06329C24.8544 10.4721 25.1583 11.9774 25.1583 13.5792C25.1583 15.181 24.8544 16.6862 24.2465 18.095C23.6386 19.5038 22.8136 20.7293 21.7714 21.7714C20.7293 22.8136 19.5038 23.6386 18.095 24.2465C16.6862 24.8544 15.181 25.1583 13.5792 25.1583ZM13.5792 22.8425C16.1652 22.8425 18.3556 21.9451 20.1503 20.1503C21.9451 18.3556 22.8425 16.1652 22.8425 13.5792C22.8425 10.9932 21.9451 8.80276 20.1503 7.00799C18.3556 5.21322 16.1652 4.31583 13.5792 4.31583C10.9932 4.31583 8.80276 5.21322 7.00799 7.00799C5.21322 8.80276 4.31583 10.9932 4.31583 13.5792C4.31583 16.1652 5.21322 18.3556 7.00799 20.1503C8.80276 21.9451 10.9932 22.8425 13.5792 22.8425Z" fill="#0F5F36"/>
</g>
</svg>
